<svg width="256" height="256" fill="none" xmlns="http://www.w3.org/2000/svg"><mask id="a" mask-type="alpha" maskUnits="userSpaceOnUse" x="0" y="0" width="256" height="256"><path d="M0 93.594C0 16.519 16.52 0 93.594 0h68.812C239.481 0 256 16.52 256 93.594v68.812C256 239.481 239.481 256 162.406 256H93.594C16.519 256 0 239.481 0 162.406V93.594Z" fill="#FEF3BA"/></mask><g mask="url(#a)"><path fill="#E0F2FE" d="M-47.5-36.5h457v351h-457z"/><path d="M48.428 109.351H29.642V94.717h18.786V70.525H67.94v24.192h18.787v14.634H67.94V172.5H48.428v-63.149ZM93.621 133.345a36.406 36.406 0 0 1 3.23-15.095c2.154-4.834 5.252-9.097 9.295-12.789 4.043-3.691 8.987-6.635 14.831-8.833 5.889-2.197 12.569-3.296 20.04-3.296 7.426 0 14.106 1.121 20.039 3.362 5.976 2.198 11.03 5.23 15.161 9.097a38.974 38.974 0 0 1 9.558 13.645c2.241 5.23 3.362 10.833 3.362 16.809 0 .747-.022 1.56-.066 2.439 0 .835-.044 1.604-.132 2.307h-73.565c.835 2.329 2.176 4.461 4.021 6.394 1.89 1.934 4.241 3.604 7.054 5.01 2.812 1.406 6.064 2.505 9.756 3.296 3.691.747 7.778 1.121 12.26 1.121 4.483 0 8.943-.462 13.382-1.385a101.929 101.929 0 0 0 12.722-3.625l6.592 14.897a84.704 84.704 0 0 1-7.779 3.164 73.854 73.854 0 0 1-8.174 2.241 88.067 88.067 0 0 1-8.898 1.319 98.385 98.385 0 0 1-9.756.461c-8.745 0-16.414-1.054-23.006-3.164-6.592-2.109-12.107-4.988-16.545-8.635-4.439-3.647-7.778-7.932-10.02-12.854-2.24-4.922-3.362-10.217-3.362-15.886Zm74.817-7.581c-.703-2.153-1.801-4.153-3.295-5.998-1.451-1.89-3.274-3.516-5.472-4.878-2.197-1.407-4.746-2.505-7.646-3.296-2.901-.791-6.087-1.187-9.558-1.187-3.692 0-7.053.418-10.086 1.253-3.032.835-5.691 1.955-7.976 3.362-2.285 1.406-4.197 3.032-5.735 4.877-1.494 1.846-2.592 3.802-3.296 5.867h53.064ZM203.414 94.717h19.512v11.206a85.085 85.085 0 0 1 13.645-8.306c4.79-2.329 9.558-4.109 14.304-5.34l5.735 17.865c-7.514.747-14.128 2.439-19.841 5.075-5.669 2.593-10.283 6.262-13.843 11.009V172.5h-19.512V94.717Z" fill="#1A1A1A"/></g></svg>