<svg width="194" height="194" viewBox="0 0 194 194" fill="none" xmlns="http://www.w3.org/2000/svg">
<path d="M7.76 0C4.22168 0 2.45252 0 1.30795 1.04147C1.21499 1.12606 1.12606 1.21499 1.04147 1.30795C0 2.45252 0 4.22168 0 7.76V7.76H7.76V0V0ZM7.76 0V7.76H15.52V0H7.76ZM15.52 0V7.76H23.27V0H15.52ZM23.27 0V7.76H31.03V0H23.27ZM31.03 0V7.76H38.79V0H31.03ZM38.79 0V7.76H46.55V0H38.79ZM46.55 0V7.76H54.3V7.76C54.3 4.22469 54.3 2.45703 53.2638 1.31376C53.1759 1.21675 53.0832 1.12412 52.9862 1.0362C51.843 0 50.0786 0 46.55 0V0ZM65.94 0C63.7971 0 62.06 1.73714 62.06 3.88V3.88C62.06 6.02286 63.7971 7.76 65.94 7.76V7.76C68.0829 7.76 69.82 6.02286 69.82 3.88V3.88C69.82 1.73714 68.0829 0 65.94 0V0ZM93.09 0C89.5517 0 87.7825 0 86.638 1.04147C86.545 1.12606 86.4561 1.21499 86.3715 1.30795C85.33 2.45252 85.33 4.22168 85.33 7.76V7.76H93.09V0V0ZM93.09 0V7.76H100.85V0H93.09ZM100.85 0V7.76H108.61V0H100.85ZM108.61 0V7.76H116.36V0H108.61ZM116.36 0V7.76H124.12V0H116.36ZM124.12 0V7.76H128C130.143 7.76 131.88 6.02286 131.88 3.88V3.88C131.88 1.73714 130.143 0 128 0H124.12ZM147.39 0C143.861 0 142.097 0 140.954 1.0362C140.857 1.12412 140.764 1.21675 140.676 1.31376C139.64 2.45703 139.64 4.22469 139.64 7.76V7.76H147.39V0V0ZM147.39 0V7.76H155.15V0H147.39ZM155.15 0V7.76H162.91V0H155.15ZM162.91 0V7.76H170.67V0H162.91ZM170.67 0V7.76H178.42V0H170.67ZM178.42 0V7.76H186.18V0H178.42ZM186.18 0V7.76H193.94V7.76C193.94 4.22168 193.94 2.45252 192.899 1.30795C192.814 1.21499 192.725 1.12606 192.632 1.04147C191.487 0 189.718 0 186.18 0V0ZM0 7.76V15.52H7.76V7.76H0ZM46.55 7.76V15.52H54.3V7.76H46.55ZM81.46 7.76C79.3171 7.76 77.58 9.49964 77.58 11.6425V11.6425C77.58 13.7826 79.3149 15.52 81.455 15.52V15.52C83.5951 15.52 85.33 13.7851 85.33 11.645V7.76H81.46ZM108.61 7.76V7.76C108.61 11.2953 108.61 13.063 109.646 14.2062C109.734 14.3032 109.827 14.3959 109.924 14.4838C111.067 15.52 112.831 15.52 116.36 15.52V15.52V7.76H108.61ZM139.64 7.76V15.52H147.39V7.76H139.64ZM186.18 7.76V15.52H193.94V7.76H186.18ZM0 15.52V23.27H7.76V15.52H0ZM23.27 15.52C19.7414 15.52 17.977 15.52 16.8338 16.5562C16.7368 16.6441 16.6441 16.7368 16.5562 16.8338C15.52 17.977 15.52 19.7414 15.52 23.27V23.27H23.27V15.52V15.52ZM23.27 15.52V23.27H31.03V15.52H23.27ZM31.03 15.52V23.27H38.79V23.27C38.79 19.7414 38.79 17.977 37.7538 16.8338C37.6659 16.7368 37.5732 16.6441 37.4762 16.5562C36.333 15.52 34.5653 15.52 31.03 15.52V15.52ZM46.55 15.52V23.27H54.3V15.52H46.55ZM116.36 15.52V23.27H124.12V23.27C124.12 19.7414 124.12 17.977 123.084 16.8338C122.996 16.7368 122.903 16.6441 122.806 16.5562C121.663 15.52 119.895 15.52 116.36 15.52V15.52ZM139.64 15.52V23.27H147.39V15.52H139.64ZM162.91 15.52C159.375 15.52 157.607 15.52 156.464 16.5562C156.367 16.6441 156.274 16.7368 156.186 16.8338C155.15 17.977 155.15 19.7414 155.15 23.27V23.27H162.91V15.52V15.52ZM162.91 15.52V23.27H170.67V15.52H162.91ZM170.67 15.52V23.27H178.42V23.27C178.42 19.7414 178.42 17.977 177.384 16.8338C177.296 16.7368 177.203 16.6441 177.106 16.5562C175.963 15.52 174.199 15.52 170.67 15.52V15.52ZM186.18 15.52V23.27H193.94V15.52H186.18ZM0 23.27V31.03H7.76V23.27H0ZM15.52 23.27V31.03H23.27V23.27H15.52ZM23.27 23.27V31.03H31.03V23.27H23.27ZM31.03 23.27V31.03H38.79V23.27H31.03ZM46.55 23.27V31.03H54.3V23.27H46.55ZM69.82 23.27C66.2817 23.27 64.5125 23.27 63.3679 24.3115C63.275 24.3961 63.1861 24.485 63.1015 24.5779C62.06 25.7225 62.06 27.4917 62.06 31.03V31.03H69.82V23.27V23.27ZM69.82 23.27V31.03H77.58V31.03C77.58 27.4917 77.58 25.7225 76.5385 24.5779C76.4539 24.485 76.365 24.3961 76.2721 24.3115C75.1275 23.27 73.3583 23.27 69.82 23.27V23.27ZM93.09 23.27C89.5517 23.27 87.7825 23.27 86.6379 24.3115C86.545 24.3961 86.4561 24.485 86.3715 24.5779C85.33 25.7225 85.33 27.4917 85.33 31.03V31.03H93.09V23.27V23.27ZM93.09 23.27V31.03H100.85V23.27H93.09ZM100.85 23.27V31.03H104.73C106.873 31.03 108.61 29.2929 108.61 27.15V27.15C108.61 25.0071 106.873 23.27 104.73 23.27H100.85ZM116.36 23.27V23.27C116.36 26.8083 116.36 28.5775 117.401 29.722C117.486 29.815 117.575 29.9039 117.668 29.9885C118.813 31.03 120.582 31.03 124.12 31.03V31.03V23.27H116.36ZM124.12 23.27V31.03H131.88V31.03C131.88 27.4917 131.88 25.7225 130.839 24.5779C130.754 24.485 130.665 24.3961 130.572 24.3115C129.427 23.27 127.658 23.27 124.12 23.27V23.27ZM139.64 23.27V31.03H147.39V23.27H139.64ZM155.15 23.27V31.03H162.91V23.27H155.15ZM162.91 23.27V31.03H170.67V23.27H162.91ZM170.67 23.27V31.03H178.42V23.27H170.67ZM186.18 23.27V31.03H193.94V23.27H186.18ZM0 31.03V38.79H7.76V31.03H0ZM15.52 31.03V31.03C15.52 34.5653 15.52 36.333 16.5562 37.4762C16.6441 37.5732 16.7368 37.6659 16.8338 37.7538C17.977 38.79 19.7414 38.79 23.27 38.79V38.79V31.03H15.52ZM23.27 31.03V38.79H31.03V31.03H23.27ZM31.03 31.03V38.79V38.79C34.5683 38.79 36.3375 38.79 37.482 37.7485C37.575 37.6639 37.6639 37.575 37.7485 37.482C38.79 36.3375 38.79 34.5683 38.79 31.03V31.03H31.03ZM46.55 31.03V38.79H54.3V31.03H46.55ZM62.06 31.03V38.79H69.82V31.03H62.06ZM69.82 31.03V38.79H77.58V31.03H69.82ZM85.33 31.03V38.79H93.09V31.03H85.33ZM93.09 31.03V38.79H100.85V31.03H93.09ZM124.12 31.03V38.79H131.88V31.03H124.12ZM139.64 31.03V38.79H147.39V31.03H139.64ZM155.15 31.03V31.03C155.15 34.5683 155.15 36.3375 156.191 37.482C156.276 37.575 156.365 37.6639 156.458 37.7485C157.603 38.79 159.372 38.79 162.91 38.79V38.79V31.03H155.15ZM162.91 31.03V38.79H170.67V31.03H162.91ZM170.67 31.03V38.79V38.79C174.199 38.79 175.963 38.79 177.106 37.7538C177.203 37.6659 177.296 37.5732 177.384 37.4762C178.42 36.333 178.42 34.5653 178.42 31.03V31.03H170.67ZM186.18 31.03V38.79H193.94V31.03H186.18ZM0 38.79V46.55H7.76V38.79H0ZM46.55 38.79V46.55H54.3V38.79H46.55ZM62.06 38.79V46.55H69.82V38.79H62.06ZM77.58 38.79V46.55H85.33V38.79H77.58ZM100.85 38.79V46.55H108.61V46.55C108.61 43.0117 108.61 41.2425 107.569 40.098C107.484 40.005 107.395 39.9161 107.302 39.8315C106.157 38.79 104.388 38.79 100.85 38.79V38.79ZM124.12 38.79C120.582 38.79 118.813 38.79 117.668 39.8315C117.575 39.9161 117.486 40.005 117.401 40.098C116.36 41.2425 116.36 43.0117 116.36 46.55V46.55H124.12V38.79V38.79ZM124.12 38.79V46.55H131.88V38.79H124.12ZM139.64 38.79V46.55H147.39V38.79H139.64ZM186.18 38.79V46.55H193.94V38.79H186.18ZM0 46.55V46.55C0 50.0786 0 51.843 1.0362 52.9862C1.12412 53.0832 1.21675 53.1759 1.31376 53.2638C2.45703 54.3 4.22469 54.3 7.76 54.3V54.3V46.55H0ZM7.76 46.55V54.3H15.52V46.55H7.76ZM15.52 46.55V54.3H23.27V46.55H15.52ZM23.27 46.55V54.3H31.03V46.55H23.27ZM31.03 46.55V54.3H38.79V46.55H31.03ZM38.79 46.55V54.3H46.55V46.55H38.79ZM46.55 46.55V54.3V54.3C50.0786 54.3 51.843 54.3 52.9862 53.2638C53.0832 53.1759 53.1759 53.0832 53.2638 52.9862C54.3 51.843 54.3 50.0786 54.3 46.55V46.55H46.55ZM62.06 46.55V54.3H69.82V46.55H62.06ZM77.58 46.55V54.3H85.33V46.55H77.58ZM100.85 46.55C97.3147 46.55 95.547 46.55 94.4038 47.5862C94.3068 47.6741 94.2141 47.7668 94.1262 47.8638C93.09 49.007 93.09 50.7714 93.09 54.3V54.3V54.3C96.6253 54.3 98.393 54.3 99.5362 53.2638C99.6333 53.1759 99.7259 53.0832 99.8138 52.9862C100.85 51.843 100.85 50.0786 100.85 46.55V46.55V46.55ZM108.61 46.55V54.3H116.36V46.55H108.61ZM124.12 46.55V50.42C124.12 52.5629 125.857 54.3 128 54.3V54.3C130.143 54.3 131.88 52.5629 131.88 50.42V46.55H124.12ZM139.64 46.55V46.55C139.64 50.0786 139.64 51.843 140.676 52.9862C140.764 53.0832 140.857 53.1759 140.954 53.2638C142.097 54.3 143.861 54.3 147.39 54.3V54.3V46.55H139.64ZM147.39 46.55V54.3H155.15V46.55H147.39ZM155.15 46.55V54.3H162.91V46.55H155.15ZM162.91 46.55V54.3H170.67V46.55H162.91ZM170.67 46.55V54.3H178.42V46.55H170.67ZM178.42 46.55V54.3H186.18V46.55H178.42ZM186.18 46.55V54.3V54.3C189.715 54.3 191.483 54.3 192.626 53.2638C192.723 53.1759 192.816 53.0832 192.904 52.9862C193.94 51.843 193.94 50.0786 193.94 46.55V46.55H186.18ZM62.06 54.3V62.06H69.82V54.3H62.06ZM69.82 54.3V62.06V62.06C73.3583 62.06 75.1275 62.06 76.272 61.0185C76.365 60.9339 76.4539 60.845 76.5385 60.752C77.58 59.6075 77.58 57.8383 77.58 54.3V54.3H69.82ZM85.33 54.3V58.18C85.33 60.3229 87.0671 62.06 89.21 62.06V62.06C91.3529 62.06 93.09 60.3229 93.09 58.18V54.3H85.33ZM108.61 54.3V62.06H116.36V54.3H108.61ZM7.76 62.06C4.22168 62.06 2.45252 62.06 1.30795 63.1015C1.21499 63.1861 1.12606 63.275 1.04147 63.3679C0 64.5125 0 66.2817 0 69.82V69.82H7.76V62.06V62.06ZM7.76 62.06V69.82H15.52V62.06H7.76ZM15.52 62.06V69.82H23.27V69.82C23.27 66.2847 23.27 64.517 22.2338 63.3738C22.1459 63.2768 22.0532 63.1841 21.9562 63.0962C20.813 62.06 19.0486 62.06 15.52 62.06V62.06ZM34.91 62.06C32.7671 62.06 31.03 63.7971 31.03 65.94V65.94C31.03 68.0829 32.7671 69.82 34.91 69.82H38.79V65.94C38.79 63.7971 37.0529 62.06 34.91 62.06V62.06ZM50.425 62.06C48.2849 62.06 46.55 63.7949 46.55 65.935V69.82H54.3V65.935C54.3 63.7949 52.5651 62.06 50.425 62.06V62.06ZM62.06 62.06V69.82H69.82V62.06H62.06ZM108.61 62.06V69.82V69.82C112.139 69.82 113.903 69.82 115.046 68.7838C115.143 68.6959 115.236 68.6032 115.324 68.5062C116.36 67.363 116.36 65.5953 116.36 62.06V62.06H108.61ZM128 62.06C125.857 62.06 124.12 63.7971 124.12 65.94V65.94C124.12 68.0829 125.857 69.82 128 69.82H131.88V62.06H128ZM131.88 62.06V69.82H139.64V62.06H131.88ZM139.64 62.06V69.82H147.39V62.06H139.64ZM147.39 62.06V69.82H155.15V62.06H147.39ZM155.15 62.06V69.82H162.91V62.06H155.15ZM162.91 62.06V69.82H170.67V69.82C170.67 66.2817 170.67 64.5125 169.629 63.368C169.544 63.275 169.455 63.1861 169.362 63.1015C168.217 62.06 166.448 62.06 162.91 62.06V62.06ZM190.06 62.06C187.917 62.06 186.18 63.7971 186.18 65.94V69.82H193.94V65.94C193.94 63.7971 192.203 62.06 190.06 62.06V62.06ZM0 69.82V77.58H7.76V69.82H0ZM7.76 69.82V77.58H15.52V69.82H7.76ZM15.52 69.82V77.58V77.58C19.0486 77.58 20.813 77.58 21.9562 76.5438C22.0532 76.4559 22.1459 76.3632 22.2338 76.2662C23.27 75.123 23.27 73.3553 23.27 69.82V69.82H15.52ZM38.79 69.82V77.58H46.55V69.82H38.79ZM54.3 69.82V77.58H62.06V69.82H54.3ZM62.06 69.82V77.58H69.82V69.82H62.06ZM96.97 69.82C94.8271 69.82 93.09 71.5571 93.09 73.7V73.7C93.09 75.8429 94.8271 77.58 96.97 77.58H100.85V69.82H96.97ZM100.85 69.82V77.58H108.61V69.82H100.85ZM139.64 69.82V69.82C139.64 73.3553 139.64 75.123 140.676 76.2662C140.764 76.3632 140.857 76.4559 140.954 76.5438C142.097 77.58 143.861 77.58 147.39 77.58V77.58V69.82H139.64ZM155.15 69.82V77.58H162.91V69.82H155.15ZM170.67 69.82V77.58H178.42V69.82H170.67ZM178.42 69.82V77.58H186.18V69.82H178.42ZM186.18 69.82V77.58H193.94V69.82H186.18ZM0 77.58V81.45C0 83.5929 1.73714 85.33 3.88 85.33V85.33C6.02286 85.33 7.76 83.5929 7.76 81.45V77.58H0ZM38.79 77.58V85.33H46.55V77.58H38.79ZM46.55 77.58V85.33V85.33C50.0786 85.33 51.843 85.33 52.9862 84.2938C53.0832 84.2059 53.1759 84.1132 53.2638 84.0162C54.3 82.873 54.3 81.1086 54.3 77.58V77.58H46.55ZM62.06 77.58V85.33H69.82V77.58H62.06ZM69.82 77.58V85.33H73.705C75.8451 85.33 77.58 83.5951 77.58 81.455V81.455C77.58 79.3149 75.8451 77.58 73.705 77.58H69.82ZM100.85 77.58V81.45C100.85 83.5929 102.587 85.33 104.73 85.33V85.33C106.873 85.33 108.61 83.5929 108.61 81.45V77.58H100.85ZM120.235 77.58C118.095 77.58 116.36 79.3149 116.36 81.455V81.455C116.36 83.5951 118.095 85.33 120.235 85.33H124.12V77.58H120.235ZM124.12 77.58V85.33H131.88V85.33C131.88 81.8014 131.88 80.037 130.844 78.8938C130.756 78.7968 130.663 78.7041 130.566 78.6162C129.423 77.58 127.655 77.58 124.12 77.58V77.58ZM147.39 77.58V85.33H155.15V77.58H147.39ZM162.91 77.58V85.33H170.67V77.58H162.91ZM178.42 77.58V85.33H186.18V77.58H178.42ZM186.18 77.58V85.33H193.94V77.58H186.18ZM38.79 85.33V93.09H46.55V85.33H38.79ZM62.06 85.33V93.09H69.82V85.33H62.06ZM89.21 85.33C87.0671 85.33 85.33 87.0671 85.33 89.21V93.09H93.09V89.21C93.09 87.0671 91.3529 85.33 89.21 85.33V85.33ZM124.12 85.33V93.09H131.88V85.33H124.12ZM131.88 85.33V93.09H139.64V93.09C139.64 89.5517 139.64 87.7825 138.599 86.638C138.514 86.545 138.425 86.4561 138.332 86.3715C137.187 85.33 135.418 85.33 131.88 85.33V85.33ZM147.39 85.33V93.09H155.15V85.33H147.39ZM155.15 85.33V93.09H162.91V85.33H155.15ZM170.67 85.33V93.09H178.42V85.33H170.67ZM178.42 85.33V93.09H186.18V85.33H178.42ZM186.18 85.33V93.09H193.94V85.33H186.18ZM3.88 93.09C1.73714 93.09 0 94.8271 0 96.97V96.97C0 99.1129 1.73714 100.85 3.88 100.85V100.85C6.02286 100.85 7.76 99.1129 7.76 96.97V96.97C7.76 94.8271 6.02286 93.09 3.88 93.09V93.09ZM23.27 93.09C19.7414 93.09 17.977 93.09 16.8338 94.1262C16.7368 94.2141 16.6441 94.3068 16.5562 94.4038C15.52 95.547 15.52 97.3147 15.52 100.85V100.85H23.27V93.09V93.09ZM23.27 93.09V100.85H31.03V100.85C31.03 97.3117 31.03 95.5425 29.9885 94.398C29.9039 94.305 29.815 94.2161 29.7221 94.1315C28.5775 93.09 26.8083 93.09 23.27 93.09V93.09ZM38.79 93.09V93.09C38.79 96.6283 38.79 98.3975 39.8315 99.5421C39.9161 99.635 40.005 99.7239 40.0979 99.8085C41.2425 100.85 43.0117 100.85 46.55 100.85V100.85V93.09H38.79ZM46.55 93.09V100.85H54.3V100.85C54.3 97.3147 54.3 95.547 53.2638 94.4038C53.1759 94.3068 53.0832 94.2141 52.9862 94.1262C51.843 93.09 50.0786 93.09 46.55 93.09V93.09ZM62.06 93.09V100.85H69.82V93.09H62.06ZM69.82 93.09V100.85H77.58V93.09H69.82ZM77.58 93.09V100.85H85.33V93.09H77.58ZM85.33 93.09V100.85H93.09V93.09H85.33ZM104.73 93.09C102.587 93.09 100.85 94.8271 100.85 96.97V100.85H104.73C106.873 100.85 108.61 99.1129 108.61 96.97V96.97C108.61 94.8271 106.873 93.09 104.73 93.09V93.09ZM124.12 93.09C120.582 93.09 118.813 93.09 117.668 94.1315C117.575 94.2161 117.486 94.305 117.401 94.398C116.36 95.5425 116.36 97.3117 116.36 100.85V100.85H124.12V93.09V93.09ZM124.12 93.09V100.85V100.85C127.658 100.85 129.427 100.85 130.572 99.8085C130.665 99.7239 130.754 99.635 130.839 99.5421C131.88 98.3975 131.88 96.6283 131.88 93.09V93.09H124.12ZM139.64 93.09V100.85H147.39V93.09H139.64ZM162.91 93.09V100.85H170.67V93.09H162.91ZM178.42 93.09V100.85H186.18V93.09H178.42ZM186.18 93.09V100.85H193.94V93.09H186.18ZM15.52 100.85V100.85C15.52 104.385 15.52 106.153 16.5562 107.296C16.6441 107.393 16.7368 107.486 16.8338 107.574C17.977 108.61 19.7414 108.61 23.27 108.61V108.61V100.85H15.52ZM23.27 100.85V108.61H31.03V100.85H23.27ZM54.3 100.85V108.61H62.06V100.85H54.3ZM93.09 100.85V108.61H100.85V100.85H93.09ZM116.36 100.85V108.61H124.12V100.85H116.36ZM139.64 100.85V108.61H147.39V100.85H139.64ZM147.39 100.85V108.61H155.15V100.85H147.39ZM155.15 100.85V108.61H162.91V100.85H155.15ZM162.91 100.85V108.61H170.67V100.85H162.91ZM170.67 100.85V108.61H178.42V100.85H170.67ZM178.42 100.85V108.61H186.18V100.85H178.42ZM186.18 100.85V108.61V108.61C189.718 108.61 191.487 108.61 192.632 107.569C192.725 107.484 192.814 107.395 192.899 107.302C193.94 106.157 193.94 104.388 193.94 100.85V100.85H186.18ZM3.88 108.61C1.7399 108.61 0 110.345 0 112.485V112.485C0 114.625 1.7399 116.36 3.88 116.36V116.36C6.0201 116.36 7.76 114.625 7.76 112.485V112.485C7.76 110.345 6.0201 108.61 3.88 108.61V108.61ZM31.03 108.61V116.36H38.79V108.61H31.03ZM38.79 108.61V116.36H46.55V108.61H38.79ZM46.55 108.61V116.36H54.3V108.61H46.55ZM62.06 108.61V116.36H69.82V116.36C69.82 112.831 69.82 111.067 68.7838 109.924C68.6959 109.827 68.6032 109.734 68.5062 109.646C67.363 108.61 65.5953 108.61 62.06 108.61V108.61ZM93.09 108.61V116.36H100.85V108.61H93.09ZM100.85 108.61V116.36H108.61V108.61H100.85ZM108.61 108.61V116.36H116.36V108.61H108.61ZM116.36 108.61V116.36V116.36C119.895 116.36 121.663 116.36 122.806 115.324C122.903 115.236 122.996 115.143 123.084 115.046C124.12 113.903 124.12 112.139 124.12 108.61V108.61H116.36ZM139.64 108.61V108.61C139.64 112.139 139.64 113.903 140.676 115.046C140.764 115.143 140.857 115.236 140.954 115.324C142.097 116.36 143.861 116.36 147.39 116.36V116.36V108.61H139.64ZM31.03 116.36C27.4917 116.36 25.7225 116.36 24.578 117.401C24.485 117.486 24.3961 117.575 24.3115 117.668C23.27 118.813 23.27 120.582 23.27 124.12V124.12H31.03V116.36V116.36ZM54.3 116.36V124.12H62.06V116.36H54.3ZM69.82 116.36V124.12H77.58V116.36H69.82ZM77.58 116.36V124.12H85.33V116.36H77.58ZM85.33 116.36V124.12H93.09V116.36H85.33ZM100.85 116.36V124.12H108.61V116.36H100.85ZM108.61 116.36V124.12H116.36V116.36H108.61ZM147.39 116.36V124.12H155.15V116.36H147.39ZM155.15 116.36V124.12H162.91V116.36H155.15ZM162.91 116.36V124.12H170.67V116.36H162.91ZM170.67 116.36V124.12H178.42V116.36H170.67ZM178.42 116.36V124.12H186.18V124.12C186.18 120.582 186.18 118.813 185.139 117.668C185.054 117.575 184.965 117.486 184.872 117.401C183.727 116.36 181.958 116.36 178.42 116.36V116.36ZM23.27 124.12V128C23.27 130.143 25.0071 131.88 27.15 131.88V131.88C29.2929 131.88 31.03 130.143 31.03 128V124.12H23.27ZM50.43 124.12C48.2871 124.12 46.55 125.857 46.55 128V128C46.55 130.143 48.2871 131.88 50.43 131.88H54.3V124.12H50.43ZM54.3 124.12V131.88H62.06V124.12H54.3ZM62.06 124.12V131.88H69.82V124.12H62.06ZM77.58 124.12V124.12C77.58 127.655 77.58 129.423 78.6162 130.566C78.7041 130.663 78.7968 130.756 78.8938 130.844C80.037 131.88 81.8014 131.88 85.33 131.88V131.88V124.12H77.58ZM85.33 124.12V131.88H93.09V124.12H85.33ZM93.09 124.12V131.88H100.85V124.12H93.09ZM100.85 124.12V131.88H108.61V124.12H100.85ZM108.61 124.12V131.88H116.36V124.12H108.61ZM116.36 124.12V131.88H124.12V124.12H116.36ZM124.12 124.12V131.88H131.88V124.12H124.12ZM131.88 124.12V131.88H139.64V124.12H131.88ZM139.64 124.12V131.88H147.39V124.12H139.64ZM147.39 124.12V131.88H155.15V124.12H147.39ZM155.15 124.12V131.88H162.91V124.12H155.15ZM186.18 124.12V128C186.18 130.143 187.917 131.88 190.06 131.88V131.88C192.203 131.88 193.94 130.143 193.94 128V128C193.94 125.857 192.203 124.12 190.06 124.12H186.18ZM62.06 131.88V135.76C62.06 137.903 63.7971 139.64 65.94 139.64V139.64C68.0829 139.64 69.82 137.903 69.82 135.76V131.88H62.06ZM100.85 131.88V139.64H108.61V131.88H100.85ZM124.12 131.88V139.64H131.88V131.88H124.12ZM155.15 131.88V139.64H162.91V131.88H155.15ZM162.91 131.88V139.64H170.67V131.88H162.91ZM170.67 131.88V139.64H178.42V139.64C178.42 136.105 178.42 134.337 177.384 133.194C177.296 133.097 177.203 133.004 177.106 132.916C175.963 131.88 174.199 131.88 170.67 131.88V131.88ZM7.76 139.64C4.22469 139.64 2.45703 139.64 1.31376 140.676C1.21675 140.764 1.12412 140.857 1.0362 140.954C0 142.097 0 143.861 0 147.39V147.39H7.76V139.64V139.64ZM7.76 139.64V147.39H15.52V139.64H7.76ZM15.52 139.64V147.39H23.27V139.64H15.52ZM23.27 139.64V147.39H31.03V139.64H23.27ZM31.03 139.64V147.39H38.79V139.64H31.03ZM38.79 139.64V147.39H46.55V139.64H38.79ZM46.55 139.64V147.39H54.3V147.39C54.3 143.861 54.3 142.097 53.2638 140.954C53.1759 140.857 53.0832 140.764 52.9862 140.676C51.843 139.64 50.0786 139.64 46.55 139.64V139.64ZM85.33 139.64C81.8014 139.64 80.037 139.64 78.8938 140.676C78.7968 140.764 78.7041 140.857 78.6162 140.954C77.58 142.097 77.58 143.861 77.58 147.39V147.39H85.33V139.64V139.64ZM85.33 139.64V147.39H93.09V139.64H85.33ZM93.09 139.64V147.39V147.39C96.6253 147.39 98.393 147.39 99.5362 146.354C99.6333 146.266 99.7259 146.173 99.8138 146.076C100.85 144.933 100.85 143.169 100.85 139.64V139.64H93.09ZM108.61 139.64V139.64C108.61 143.169 108.61 144.933 109.646 146.076C109.734 146.173 109.827 146.266 109.924 146.354C111.067 147.39 112.831 147.39 116.36 147.39V147.39V147.39C116.36 143.861 116.36 142.097 115.324 140.954C115.236 140.857 115.143 140.764 115.046 140.676C113.903 139.64 112.139 139.64 108.61 139.64V139.64ZM124.12 139.64V147.39H131.88V139.64H124.12ZM143.515 139.64C141.375 139.64 139.64 141.375 139.64 143.515V143.515C139.64 145.655 141.375 147.39 143.515 147.39V147.39C145.655 147.39 147.39 145.655 147.39 143.515V143.515C147.39 141.375 145.655 139.64 143.515 139.64V139.64ZM155.15 139.64V147.39H162.91V139.64H155.15ZM162.91 139.64V147.39V147.39C166.445 147.39 168.213 147.39 169.356 146.354C169.453 146.266 169.546 146.173 169.634 146.076C170.67 144.933 170.67 143.169 170.67 139.64V139.64H162.91ZM178.42 139.64V147.39H186.18V139.64H178.42ZM186.18 139.64V147.39H190.065C192.205 147.39 193.94 145.655 193.94 143.515V143.515C193.94 141.375 192.205 139.64 190.065 139.64H186.18ZM0 147.39V155.15H7.76V147.39H0ZM46.55 147.39V155.15H54.3V147.39H46.55ZM77.58 147.39C74.0417 147.39 72.2725 147.39 71.128 148.431C71.035 148.516 70.9461 148.605 70.8615 148.698C69.82 149.843 69.82 151.612 69.82 155.15V155.15H77.58V147.39V147.39ZM85.33 147.39V155.15V155.15C88.8683 155.15 90.6375 155.15 91.7821 154.109C91.875 154.024 91.9639 153.935 92.0485 153.842C93.09 152.697 93.09 150.928 93.09 147.39V147.39H85.33ZM116.36 147.39V155.15H124.12V147.39H116.36ZM124.12 147.39V155.15H131.88V147.39H124.12ZM155.15 147.39V155.15H162.91V147.39H155.15ZM178.42 147.39V155.15H186.18V147.39H178.42ZM0 155.15V162.91H7.76V155.15H0ZM23.27 155.15C19.7414 155.15 17.977 155.15 16.8338 156.186C16.7368 156.274 16.6441 156.367 16.5562 156.464C15.52 157.607 15.52 159.375 15.52 162.91V162.91H23.27V155.15V155.15ZM23.27 155.15V162.91H31.03V155.15H23.27ZM31.03 155.15V162.91H38.79V162.91C38.79 159.372 38.79 157.603 37.7485 156.458C37.6639 156.365 37.575 156.276 37.482 156.191C36.3375 155.15 34.5683 155.15 31.03 155.15V155.15ZM46.55 155.15V162.91H54.3V155.15H46.55ZM65.94 155.15C63.7971 155.15 62.06 156.887 62.06 159.03V159.03C62.06 161.173 63.7971 162.91 65.94 162.91H69.82V155.15H65.94ZM69.82 155.15V162.91H77.58V155.15H69.82ZM77.58 155.15V162.91H85.33V155.15H77.58ZM104.73 155.15C102.587 155.15 100.85 156.887 100.85 159.03V159.03C100.85 161.173 102.587 162.91 104.73 162.91H108.61V155.15H104.73ZM108.61 155.15V162.91H116.36V155.15H108.61ZM124.12 155.15V162.91H131.88V155.15H124.12ZM131.88 155.15V162.91H139.64V155.15H131.88ZM139.64 155.15V162.91H147.39V155.15H139.64ZM147.39 155.15V162.91H155.15V155.15H147.39ZM155.15 155.15V162.91V162.91C158.688 162.91 160.457 162.91 161.602 161.869C161.695 161.784 161.784 161.695 161.869 161.602C162.91 160.457 162.91 158.688 162.91 155.15V155.15H155.15ZM178.42 155.15C174.891 155.15 173.127 155.15 171.984 156.186C171.887 156.274 171.794 156.367 171.706 156.464C170.67 157.607 170.67 159.375 170.67 162.91V162.91H178.42V155.15V155.15ZM178.42 155.15V162.91H186.18V155.15H178.42ZM0 162.91V170.67H7.76V162.91H0ZM15.52 162.91V170.67H23.27V162.91H15.52ZM23.27 162.91V170.67H31.03V162.91H23.27ZM31.03 162.91V170.67H38.79V162.91H31.03ZM46.55 162.91V170.67H54.3V162.91H46.55ZM69.82 162.91V170.67H77.58V162.91H69.82ZM77.58 162.91V170.67H85.33V162.91H77.58ZM85.33 162.91V170.67H93.09V170.67C93.09 167.132 93.09 165.363 92.0485 164.218C91.9639 164.125 91.875 164.036 91.7821 163.951C90.6375 162.91 88.8683 162.91 85.33 162.91V162.91ZM108.61 162.91V170.67H116.36V162.91H108.61ZM116.36 162.91V170.67H124.12V162.91H116.36ZM170.67 162.91V170.67H178.42V162.91H170.67ZM186.18 162.91V170.67H190.06C192.203 170.67 193.94 168.933 193.94 166.79V166.79C193.94 164.647 192.203 162.91 190.06 162.91H186.18ZM0 170.67V178.42H7.76V170.67H0ZM15.52 170.67V170.67C15.52 174.199 15.52 175.963 16.5562 177.106C16.6441 177.203 16.7368 177.296 16.8338 177.384C17.977 178.42 19.7414 178.42 23.27 178.42V178.42V170.67H15.52ZM23.27 170.67V178.42H31.03V170.67H23.27ZM31.03 170.67V178.42V178.42C34.5653 178.42 36.333 178.42 37.4762 177.384C37.5732 177.296 37.6659 177.203 37.7538 177.106C38.79 175.963 38.79 174.199 38.79 170.67V170.67H31.03ZM46.55 170.67V178.42H54.3V170.67H46.55ZM69.82 170.67C66.2847 170.67 64.517 170.67 63.3738 171.706C63.2768 171.794 63.1841 171.887 63.0962 171.984C62.06 173.127 62.06 174.891 62.06 178.42V178.42H69.82V170.67V170.67ZM69.82 170.67V178.42H77.58V170.67H69.82ZM85.33 170.67V178.42H93.09V170.67H85.33ZM108.61 170.67V178.42H116.36V170.67H108.61ZM116.36 170.67V178.42H124.12V170.67H116.36ZM124.12 170.67V178.42H131.88V170.67H124.12ZM131.88 170.67V178.42H139.64V178.42C139.64 174.891 139.64 173.127 138.604 171.984C138.516 171.887 138.423 171.794 138.326 171.706C137.183 170.67 135.415 170.67 131.88 170.67V170.67ZM170.67 170.67V178.42H178.42V170.67H170.67ZM178.42 170.67V178.42H186.18V170.67H178.42ZM0 178.42V186.18H7.76V178.42H0ZM46.55 178.42V186.18H54.3V178.42H46.55ZM62.06 178.42V186.18H69.82V178.42H62.06ZM69.82 178.42V186.18H77.58V178.42H69.82ZM85.33 178.42V186.18H93.09V178.42H85.33ZM108.61 178.42C105.072 178.42 103.303 178.42 102.158 179.461C102.065 179.546 101.976 179.635 101.891 179.728C100.85 180.873 100.85 182.642 100.85 186.18V186.18H108.61V178.42V178.42ZM108.61 178.42V186.18H116.36V178.42H108.61ZM124.12 178.42V186.18H131.88V178.42H124.12ZM131.88 178.42V186.18H139.64V178.42H131.88ZM162.91 178.42C159.372 178.42 157.603 178.42 156.458 179.461C156.365 179.546 156.276 179.635 156.191 179.728C155.15 180.873 155.15 182.642 155.15 186.18V186.18H162.91V178.42V178.42ZM162.91 178.42V186.18H170.67V178.42H162.91ZM170.67 178.42V186.18H178.42V178.42H170.67ZM178.42 178.42V186.18H186.18V178.42H178.42ZM0 186.18V186.18C0 189.718 0 191.487 1.04147 192.632C1.12606 192.725 1.21499 192.814 1.30795 192.899C2.45252 193.94 4.22168 193.94 7.76 193.94V193.94V186.18H0ZM7.76 186.18V193.94H15.52V186.18H7.76ZM15.52 186.18V193.94H23.27V186.18H15.52ZM23.27 186.18V193.94H31.03V186.18H23.27ZM31.03 186.18V193.94H38.79V186.18H31.03ZM38.79 186.18V193.94H46.55V186.18H38.79ZM46.55 186.18V193.94V193.94C50.0786 193.94 51.843 193.94 52.9862 192.904C53.0832 192.816 53.1759 192.723 53.2638 192.626C54.3 191.483 54.3 189.715 54.3 186.18V186.18H46.55ZM62.06 186.18V190.06C62.06 192.203 63.7971 193.94 65.94 193.94V193.94C68.0829 193.94 69.82 192.203 69.82 190.06V186.18H62.06ZM77.58 186.18V186.18C77.58 189.715 77.58 191.483 78.6162 192.626C78.7041 192.723 78.7968 192.816 78.8938 192.904C80.037 193.94 81.8014 193.94 85.33 193.94V193.94V186.18H77.58ZM85.33 186.18V193.94H93.09V186.18H85.33ZM93.09 186.18V193.94V193.94C96.6283 193.94 98.3975 193.94 99.5421 192.899C99.635 192.814 99.7239 192.725 99.8085 192.632C100.85 191.487 100.85 189.718 100.85 186.18V186.18H93.09ZM108.61 186.18V186.18C108.61 189.715 108.61 191.483 109.646 192.626C109.734 192.723 109.827 192.816 109.924 192.904C111.067 193.94 112.831 193.94 116.36 193.94V193.94V186.18H108.61ZM116.36 186.18V193.94V193.94C119.898 193.94 121.667 193.94 122.812 192.899C122.905 192.814 122.994 192.725 123.079 192.632C124.12 191.487 124.12 189.718 124.12 186.18V186.18H116.36ZM139.64 186.18V186.18C139.64 189.715 139.64 191.483 140.676 192.626C140.764 192.723 140.857 192.816 140.954 192.904C142.097 193.94 143.861 193.94 147.39 193.94V193.94V186.18H139.64ZM147.39 186.18V193.94H155.15V186.18H147.39ZM155.15 186.18V193.94H162.91V186.18H155.15ZM162.91 186.18V193.94H170.67V186.18H162.91ZM170.67 186.18V193.94H178.42V186.18H170.67ZM178.42 186.18V193.94H186.18V186.18H178.42ZM186.18 186.18V193.94H190.06C192.203 193.94 193.94 192.203 193.94 190.06V190.06C193.94 187.917 192.203 186.18 190.06 186.18H186.18Z" fill="white"/>
</svg>
