<svg width="194" height="194" fill="none" xmlns="http://www.w3.org/2000/svg"><path d="M7.76 0C4.222 0 2.453 0 1.308 1.041a4.002 4.002 0 0 0-.267.267C0 2.453 0 4.222 0 7.76h7.76V0Zm0 0v7.76h7.76V0H7.76Zm7.76 0v7.76h7.75V0h-7.75Zm7.75 0v7.76h7.76V0h-7.76Zm7.76 0v7.76h7.76V0h-7.76Zm7.76 0v7.76h7.76V0h-7.76Zm7.76 0v7.76h7.75c0-3.535 0-5.303-1.036-6.446a3.996 3.996 0 0 0-.278-.278C51.843 0 50.08 0 46.55 0Zm19.39 0a3.88 3.88 0 1 0 0 7.76 3.88 3.88 0 1 0 0-7.76Zm27.15 0c-3.538 0-5.308 0-6.452 1.041a3.995 3.995 0 0 0-.267.267C85.33 2.453 85.33 4.222 85.33 7.76h7.76V0Zm0 0v7.76h7.76V0h-7.76Zm7.76 0v7.76h7.76V0h-7.76Zm7.76 0v7.76h7.75V0h-7.75Zm7.75 0v7.76h7.76V0h-7.76Zm7.76 0v7.76H128A3.88 3.88 0 1 0 128 0h-3.88Zm23.27 0c-3.529 0-5.293 0-6.436 1.036-.097.088-.19.18-.278.278-1.036 1.143-1.036 2.91-1.036 6.446h7.75V0Zm0 0v7.76h7.76V0h-7.76Zm7.76 0v7.76h7.76V0h-7.76Zm7.76 0v7.76h7.76V0h-7.76Zm7.76 0v7.76h7.75V0h-7.75Zm7.75 0v7.76h7.76V0h-7.76Zm7.76 0v7.76h7.76c0-3.538 0-5.307-1.041-6.452a4.1 4.1 0 0 0-.267-.267C191.487 0 189.718 0 186.18 0ZM0 7.76v7.76h7.76V7.76H0Zm46.55 0v7.76h7.75V7.76h-7.75Zm34.91 0a3.882 3.882 0 0 0-3.88 3.883 3.875 3.875 0 1 0 7.75.002V7.76h-3.87Zm27.15 0c0 3.535 0 5.303 1.036 6.446.088.097.181.19.278.278 1.143 1.036 2.907 1.036 6.436 1.036V7.76h-7.75Zm31.03 0v7.76h7.75V7.76h-7.75Zm46.54 0v7.76h7.76V7.76h-7.76ZM0 15.52v7.75h7.76v-7.75H0Zm23.27 0c-3.529 0-5.293 0-6.436 1.036-.097.088-.19.18-.278.278-1.036 1.143-1.036 2.907-1.036 6.436h7.75v-7.75Zm0 0v7.75h7.76v-7.75h-7.76Zm7.76 0v7.75h7.76c0-3.529 0-5.293-1.036-6.436a3.994 3.994 0 0 0-.278-.278c-1.143-1.036-2.91-1.036-6.446-1.036Zm15.52 0v7.75h7.75v-7.75h-7.75Zm69.81 0v7.75h7.76c0-3.529 0-5.293-1.036-6.436a4.022 4.022 0 0 0-.278-.278c-1.143-1.036-2.911-1.036-6.446-1.036Zm23.28 0v7.75h7.75v-7.75h-7.75Zm23.27 0c-3.535 0-5.303 0-6.446 1.036-.097.088-.19.18-.278.278-1.036 1.143-1.036 2.907-1.036 6.436h7.76v-7.75Zm0 0v7.75h7.76v-7.75h-7.76Zm7.76 0v7.75h7.75c0-3.529 0-5.293-1.036-6.436a4.022 4.022 0 0 0-.278-.278c-1.143-1.036-2.907-1.036-6.436-1.036Zm15.51 0v7.75h7.76v-7.75h-7.76ZM0 23.27v7.76h7.76v-7.76H0Zm15.52 0v7.76h7.75v-7.76h-7.75Zm7.75 0v7.76h7.76v-7.76h-7.76Zm7.76 0v7.76h7.76v-7.76h-7.76Zm15.52 0v7.76h7.75v-7.76h-7.75Zm23.27 0c-3.538 0-5.307 0-6.452 1.041a4.033 4.033 0 0 0-.267.267c-1.041 1.145-1.041 2.914-1.041 6.452h7.76v-7.76Zm0 0v7.76h7.76c0-3.538 0-5.308-1.041-6.452a4.033 4.033 0 0 0-.267-.267c-1.145-1.041-2.914-1.041-6.452-1.041Zm23.27 0c-3.538 0-5.308 0-6.452 1.041a4.033 4.033 0 0 0-.267.267c-1.041 1.145-1.041 2.914-1.041 6.452h7.76v-7.76Zm0 0v7.76h7.76v-7.76h-7.76Zm7.76 0v7.76h3.88a3.88 3.88 0 1 0 0-7.76h-3.88Zm15.51 0c0 3.538 0 5.308 1.041 6.452.085.093.174.182.267.266 1.145 1.042 2.914 1.042 6.452 1.042v-7.76h-7.76Zm7.76 0v7.76h7.76c0-3.538 0-5.308-1.041-6.452a4.116 4.116 0 0 0-.267-.267c-1.145-1.041-2.914-1.041-6.452-1.041Zm15.52 0v7.76h7.75v-7.76h-7.75Zm15.51 0v7.76h7.76v-7.76h-7.76Zm7.76 0v7.76h7.76v-7.76h-7.76Zm7.76 0v7.76h7.75v-7.76h-7.75Zm15.51 0v7.76h7.76v-7.76h-7.76ZM0 31.03v7.76h7.76v-7.76H0Zm15.52 0c0 3.535 0 5.303 1.036 6.446.088.097.18.19.278.278 1.143 1.036 2.907 1.036 6.436 1.036v-7.76h-7.75Zm7.75 0v7.76h7.76v-7.76h-7.76Zm7.76 0v7.76c3.538 0 5.307 0 6.452-1.041.093-.085.182-.174.267-.267 1.041-1.145 1.041-2.914 1.041-6.452h-7.76Zm15.52 0v7.76h7.75v-7.76h-7.75Zm15.51 0v7.76h7.76v-7.76h-7.76Zm7.76 0v7.76h7.76v-7.76h-7.76Zm15.51 0v7.76h7.76v-7.76h-7.76Zm7.76 0v7.76h7.76v-7.76h-7.76Zm31.03 0v7.76h7.76v-7.76h-7.76Zm15.52 0v7.76h7.75v-7.76h-7.75Zm15.51 0c0 3.538 0 5.307 1.041 6.452.085.093.174.182.267.267 1.145 1.041 2.914 1.041 6.452 1.041v-7.76h-7.76Zm7.76 0v7.76h7.76v-7.76h-7.76Zm7.76 0v7.76c3.529 0 5.293 0 6.436-1.036.097-.088.19-.18.278-.278 1.036-1.143 1.036-2.91 1.036-6.446h-7.75Zm15.51 0v7.76h7.76v-7.76h-7.76ZM0 38.79v7.76h7.76v-7.76H0Zm46.55 0v7.76h7.75v-7.76h-7.75Zm15.51 0v7.76h7.76v-7.76h-7.76Zm15.52 0v7.76h7.75v-7.76h-7.75Zm23.27 0v7.76h7.76c0-3.538 0-5.307-1.041-6.452a4.093 4.093 0 0 0-.267-.267c-1.145-1.041-2.914-1.041-6.452-1.041Zm23.27 0c-3.538 0-5.307 0-6.452 1.041a4.093 4.093 0 0 0-.267.267c-1.041 1.145-1.041 2.914-1.041 6.452h7.76v-7.76Zm0 0v7.76h7.76v-7.76h-7.76Zm15.52 0v7.76h7.75v-7.76h-7.75Zm46.54 0v7.76h7.76v-7.76h-7.76ZM0 46.55c0 3.529 0 5.293 1.036 6.436.088.097.18.19.278.278C2.457 54.3 4.224 54.3 7.76 54.3v-7.75H0Zm7.76 0v7.75h7.76v-7.75H7.76Zm7.76 0v7.75h7.75v-7.75h-7.75Zm7.75 0v7.75h7.76v-7.75h-7.76Zm7.76 0v7.75h7.76v-7.75h-7.76Zm7.76 0v7.75h7.76v-7.75h-7.76Zm7.76 0v7.75c3.529 0 5.293 0 6.436-1.036.097-.088.19-.18.278-.278C54.3 51.843 54.3 50.08 54.3 46.55h-7.75Zm15.51 0v7.75h7.76v-7.75h-7.76Zm15.52 0v7.75h7.75v-7.75h-7.75Zm23.27 0c-3.535 0-5.303 0-6.446 1.036-.097.088-.19.18-.278.278-1.036 1.143-1.036 2.907-1.036 6.436 3.535 0 5.303 0 6.446-1.036.097-.088.19-.18.278-.278 1.036-1.143 1.036-2.907 1.036-6.436Zm7.76 0v7.75h7.75v-7.75h-7.75Zm15.51 0v3.87a3.88 3.88 0 1 0 7.76 0v-3.87h-7.76Zm15.52 0c0 3.529 0 5.293 1.036 6.436.088.097.181.19.278.278 1.143 1.036 2.907 1.036 6.436 1.036v-7.75h-7.75Zm7.75 0v7.75h7.76v-7.75h-7.76Zm7.76 0v7.75h7.76v-7.75h-7.76Zm7.76 0v7.75h7.76v-7.75h-7.76Zm7.76 0v7.75h7.75v-7.75h-7.75Zm7.75 0v7.75h7.76v-7.75h-7.76Zm7.76 0v7.75c3.535 0 5.303 0 6.446-1.036.097-.088.19-.18.278-.278 1.036-1.143 1.036-2.907 1.036-6.436h-7.76ZM62.06 54.3v7.76h7.76V54.3h-7.76Zm7.76 0v7.76c3.538 0 5.308 0 6.452-1.041a3.94 3.94 0 0 0 .266-.267c1.042-1.145 1.042-2.914 1.042-6.452h-7.76Zm15.51 0v3.88a3.88 3.88 0 1 0 7.76 0V54.3h-7.76Zm23.28 0v7.76h7.75V54.3h-7.75ZM7.76 62.06c-3.538 0-5.307 0-6.452 1.041a4.017 4.017 0 0 0-.267.267C0 64.513 0 66.282 0 69.82h7.76v-7.76Zm0 0v7.76h7.76v-7.76H7.76Zm7.76 0v7.76h7.75c0-3.535 0-5.303-1.036-6.446a3.994 3.994 0 0 0-.278-.278c-1.143-1.036-2.907-1.036-6.436-1.036Zm19.39 0a3.88 3.88 0 1 0 0 7.76h3.88v-3.88a3.88 3.88 0 0 0-3.88-3.88Zm15.515 0a3.875 3.875 0 0 0-3.875 3.875v3.885h7.75v-3.885a3.875 3.875 0 0 0-3.875-3.875Zm11.635 0v7.76h7.76v-7.76h-7.76Zm46.55 0v7.76c3.529 0 5.293 0 6.436-1.036.097-.088.19-.18.278-.278 1.036-1.143 1.036-2.91 1.036-6.446h-7.75Zm19.39 0a3.88 3.88 0 1 0 0 7.76h3.88v-7.76H128Zm3.88 0v7.76h7.76v-7.76h-7.76Zm7.76 0v7.76h7.75v-7.76h-7.75Zm7.75 0v7.76h7.76v-7.76h-7.76Zm7.76 0v7.76h7.76v-7.76h-7.76Zm7.76 0v7.76h7.76c0-3.538 0-5.307-1.041-6.452a4.093 4.093 0 0 0-.267-.267c-1.145-1.041-2.914-1.041-6.452-1.041Zm27.15 0a3.88 3.88 0 0 0-3.88 3.88v3.88h7.76v-3.88a3.88 3.88 0 0 0-3.88-3.88ZM0 69.82v7.76h7.76v-7.76H0Zm7.76 0v7.76h7.76v-7.76H7.76Zm7.76 0v7.76c3.529 0 5.293 0 6.436-1.036.097-.088.19-.18.278-.278 1.036-1.143 1.036-2.91 1.036-6.446h-7.75Zm23.27 0v7.76h7.76v-7.76h-7.76Zm15.51 0v7.76h7.76v-7.76H54.3Zm7.76 0v7.76h7.76v-7.76h-7.76Zm34.91 0a3.88 3.88 0 1 0 0 7.76h3.88v-7.76h-3.88Zm3.88 0v7.76h7.76v-7.76h-7.76Zm38.79 0c0 3.535 0 5.303 1.036 6.446.088.097.181.19.278.278 1.143 1.036 2.907 1.036 6.436 1.036v-7.76h-7.75Zm15.51 0v7.76h7.76v-7.76h-7.76Zm15.52 0v7.76h7.75v-7.76h-7.75Zm7.75 0v7.76h7.76v-7.76h-7.76Zm7.76 0v7.76h7.76v-7.76h-7.76ZM0 77.58v3.87a3.88 3.88 0 1 0 7.76 0v-3.87H0Zm38.79 0v7.75h7.76v-7.75h-7.76Zm7.76 0v7.75c3.529 0 5.293 0 6.436-1.036.097-.088.19-.18.278-.278C54.3 82.873 54.3 81.11 54.3 77.58h-7.75Zm15.51 0v7.75h7.76v-7.75h-7.76Zm7.76 0v7.75h3.885a3.875 3.875 0 0 0 0-7.75H69.82Zm31.03 0v3.87a3.88 3.88 0 1 0 7.76 0v-3.87h-7.76Zm19.385 0a3.875 3.875 0 0 0 0 7.75h3.885v-7.75h-3.885Zm3.885 0v7.75h7.76c0-3.529 0-5.293-1.036-6.436a4.022 4.022 0 0 0-.278-.278c-1.143-1.036-2.911-1.036-6.446-1.036Zm23.27 0v7.75h7.76v-7.75h-7.76Zm15.52 0v7.75h7.76v-7.75h-7.76Zm15.51 0v7.75h7.76v-7.75h-7.76Zm7.76 0v7.75h7.76v-7.75h-7.76ZM38.79 85.33v7.76h7.76v-7.76h-7.76Zm23.27 0v7.76h7.76v-7.76h-7.76Zm27.15 0a3.88 3.88 0 0 0-3.88 3.88v3.88h7.76v-3.88a3.88 3.88 0 0 0-3.88-3.88Zm34.91 0v7.76h7.76v-7.76h-7.76Zm7.76 0v7.76h7.76c0-3.538 0-5.308-1.041-6.452a4.093 4.093 0 0 0-.267-.267c-1.145-1.041-2.914-1.041-6.452-1.041Zm15.51 0v7.76h7.76v-7.76h-7.76Zm7.76 0v7.76h7.76v-7.76h-7.76Zm15.52 0v7.76h7.75v-7.76h-7.75Zm7.75 0v7.76h7.76v-7.76h-7.76Zm7.76 0v7.76h7.76v-7.76h-7.76ZM3.88 93.09a3.88 3.88 0 1 0 0 7.76 3.88 3.88 0 1 0 0-7.76Zm19.39 0c-3.529 0-5.293 0-6.436 1.036-.097.088-.19.18-.278.278-1.036 1.143-1.036 2.91-1.036 6.446h7.75v-7.76Zm0 0v7.76h7.76c0-3.538 0-5.307-1.042-6.452a4.01 4.01 0 0 0-.266-.266c-1.145-1.042-2.914-1.042-6.452-1.042Zm15.52 0c0 3.538 0 5.307 1.041 6.452.085.093.174.182.267.266 1.145 1.042 2.914 1.042 6.452 1.042v-7.76h-7.76Zm7.76 0v7.76h7.75c0-3.535 0-5.303-1.036-6.446a3.994 3.994 0 0 0-.278-.278c-1.143-1.036-2.907-1.036-6.436-1.036Zm15.51 0v7.76h7.76v-7.76h-7.76Zm7.76 0v7.76h7.76v-7.76h-7.76Zm7.76 0v7.76h7.75v-7.76h-7.75Zm7.75 0v7.76h7.76v-7.76h-7.76Zm19.4 0a3.88 3.88 0 0 0-3.88 3.88v3.88h3.88a3.88 3.88 0 1 0 0-7.76Zm19.39 0c-3.538 0-5.307 0-6.452 1.041a4.093 4.093 0 0 0-.267.267c-1.041 1.145-1.041 2.914-1.041 6.452h7.76v-7.76Zm0 0v7.76c3.538 0 5.307 0 6.452-1.041.093-.085.182-.174.267-.267 1.041-1.145 1.041-2.914 1.041-6.452h-7.76Zm15.52 0v7.76h7.75v-7.76h-7.75Zm23.27 0v7.76h7.76v-7.76h-7.76Zm15.51 0v7.76h7.76v-7.76h-7.76Zm7.76 0v7.76h7.76v-7.76h-7.76Zm-170.66 7.76c0 3.535 0 5.303 1.036 6.446.088.097.18.19.278.278 1.143 1.036 2.907 1.036 6.436 1.036v-7.76h-7.75Zm7.75 0v7.76h7.76v-7.76h-7.76Zm31.03 0v7.76h7.76v-7.76H54.3Zm38.79 0v7.76h7.76v-7.76h-7.76Zm23.27 0v7.76h7.76v-7.76h-7.76Zm23.28 0v7.76h7.75v-7.76h-7.75Zm7.75 0v7.76h7.76v-7.76h-7.76Zm7.76 0v7.76h7.76v-7.76h-7.76Zm7.76 0v7.76h7.76v-7.76h-7.76Zm7.76 0v7.76h7.75v-7.76h-7.75Zm7.75 0v7.76h7.76v-7.76h-7.76Zm7.76 0v7.76c3.538 0 5.307 0 6.452-1.041.093-.085.182-.174.267-.267 1.041-1.145 1.041-2.914 1.041-6.452h-7.76Zm-182.3 7.76A3.88 3.88 0 0 0 0 112.485a3.88 3.88 0 0 0 3.88 3.875 3.88 3.88 0 0 0 3.88-3.875 3.88 3.88 0 0 0-3.88-3.875Zm27.15 0v7.75h7.76v-7.75h-7.76Zm7.76 0v7.75h7.76v-7.75h-7.76Zm7.76 0v7.75h7.75v-7.75h-7.75Zm15.51 0v7.75h7.76c0-3.529 0-5.293-1.036-6.436a4.022 4.022 0 0 0-.278-.278c-1.143-1.036-2.91-1.036-6.446-1.036Zm31.03 0v7.75h7.76v-7.75h-7.76Zm7.76 0v7.75h7.76v-7.75h-7.76Zm7.76 0v7.75h7.75v-7.75h-7.75Zm7.75 0v7.75c3.535 0 5.303 0 6.446-1.036a4.05 4.05 0 0 0 .278-.278c1.036-1.143 1.036-2.907 1.036-6.436h-7.76Zm23.28 0c0 3.529 0 5.293 1.036 6.436.088.097.181.19.278.278 1.143 1.036 2.907 1.036 6.436 1.036v-7.75h-7.75Zm-108.61 7.75c-3.538 0-5.308 0-6.452 1.041a4.093 4.093 0 0 0-.267.267c-1.041 1.145-1.041 2.914-1.041 6.452h7.76v-7.76Zm23.27 0v7.76h7.76v-7.76H54.3Zm15.52 0v7.76h7.76v-7.76h-7.76Zm7.76 0v7.76h7.75v-7.76h-7.75Zm7.75 0v7.76h7.76v-7.76h-7.76Zm15.52 0v7.76h7.76v-7.76h-7.76Zm7.76 0v7.76h7.75v-7.76h-7.75Zm38.78 0v7.76h7.76v-7.76h-7.76Zm7.76 0v7.76h7.76v-7.76h-7.76Zm7.76 0v7.76h7.76v-7.76h-7.76Zm7.76 0v7.76h7.75v-7.76h-7.75Zm7.75 0v7.76h7.76c0-3.538 0-5.307-1.041-6.452a4.203 4.203 0 0 0-.267-.267c-1.145-1.041-2.914-1.041-6.452-1.041Zm-155.15 7.76V128a3.88 3.88 0 1 0 7.76 0v-3.88h-7.76Zm27.16 0a3.88 3.88 0 1 0 0 7.76h3.87v-7.76h-3.87Zm3.87 0v7.76h7.76v-7.76H54.3Zm7.76 0v7.76h7.76v-7.76h-7.76Zm15.52 0c0 3.535 0 5.303 1.036 6.446.088.097.18.19.278.278 1.143 1.036 2.907 1.036 6.436 1.036v-7.76h-7.75Zm7.75 0v7.76h7.76v-7.76h-7.76Zm7.76 0v7.76h7.76v-7.76h-7.76Zm7.76 0v7.76h7.76v-7.76h-7.76Zm7.76 0v7.76h7.75v-7.76h-7.75Zm7.75 0v7.76h7.76v-7.76h-7.76Zm7.76 0v7.76h7.76v-7.76h-7.76Zm7.76 0v7.76h7.76v-7.76h-7.76Zm7.76 0v7.76h7.75v-7.76h-7.75Zm7.75 0v7.76h7.76v-7.76h-7.76Zm7.76 0v7.76h7.76v-7.76h-7.76Zm31.03 0V128a3.88 3.88 0 1 0 7.76 0 3.88 3.88 0 0 0-3.88-3.88h-3.88Zm-124.12 7.76v3.88a3.88 3.88 0 1 0 7.76 0v-3.88h-7.76Zm38.79 0v7.76h7.76v-7.76h-7.76Zm23.27 0v7.76h7.76v-7.76h-7.76Zm31.03 0v7.76h7.76v-7.76h-7.76Zm7.76 0v7.76h7.76v-7.76h-7.76Zm7.76 0v7.76h7.75c0-3.535 0-5.303-1.036-6.446a4.05 4.05 0 0 0-.278-.278c-1.143-1.036-2.907-1.036-6.436-1.036ZM7.76 139.64c-3.535 0-5.303 0-6.446 1.036a4.05 4.05 0 0 0-.278.278C0 142.097 0 143.861 0 147.39h7.76v-7.75Zm0 0v7.75h7.76v-7.75H7.76Zm7.76 0v7.75h7.75v-7.75h-7.75Zm7.75 0v7.75h7.76v-7.75h-7.76Zm7.76 0v7.75h7.76v-7.75h-7.76Zm7.76 0v7.75h7.76v-7.75h-7.76Zm7.76 0v7.75h7.75c0-3.529 0-5.293-1.036-6.436a4.022 4.022 0 0 0-.278-.278c-1.143-1.036-2.907-1.036-6.436-1.036Zm38.78 0c-3.529 0-5.293 0-6.436 1.036a4.05 4.05 0 0 0-.278.278c-1.036 1.143-1.036 2.907-1.036 6.436h7.75v-7.75Zm0 0v7.75h7.76v-7.75h-7.76Zm7.76 0v7.75c3.535 0 5.303 0 6.446-1.036a4 4 0 0 0 .278-.278c1.036-1.143 1.036-2.907 1.036-6.436h-7.76Zm15.52 0c0 3.529 0 5.293 1.036 6.436.088.097.181.19.278.278 1.143 1.036 2.907 1.036 6.436 1.036 0-3.529 0-5.293-1.036-6.436a4.05 4.05 0 0 0-.278-.278c-1.143-1.036-2.907-1.036-6.436-1.036Zm15.51 0v7.75h7.76v-7.75h-7.76Zm19.395 0a3.875 3.875 0 0 0 0 7.75 3.875 3.875 0 0 0 0-7.75Zm11.635 0v7.75h7.76v-7.75h-7.76Zm7.76 0v7.75c3.535 0 5.303 0 6.446-1.036a4.05 4.05 0 0 0 .278-.278c1.036-1.143 1.036-2.907 1.036-6.436h-7.76Zm15.51 0v7.75h7.76v-7.75h-7.76Zm7.76 0v7.75h3.885a3.875 3.875 0 0 0 0-7.75h-3.885ZM0 147.39v7.76h7.76v-7.76H0Zm46.55 0v7.76h7.75v-7.76h-7.75Zm31.03 0c-3.538 0-5.308 0-6.452 1.041a4.093 4.093 0 0 0-.266.267c-1.042 1.145-1.042 2.914-1.042 6.452h7.76v-7.76Zm7.75 0v7.76c3.538 0 5.308 0 6.452-1.041.093-.085.182-.174.267-.267 1.041-1.145 1.041-2.914 1.041-6.452h-7.76Zm31.03 0v7.76h7.76v-7.76h-7.76Zm7.76 0v7.76h7.76v-7.76h-7.76Zm31.03 0v7.76h7.76v-7.76h-7.76Zm23.27 0v7.76h7.76v-7.76h-7.76ZM0 155.15v7.76h7.76v-7.76H0Zm23.27 0c-3.529 0-5.293 0-6.436 1.036a4.05 4.05 0 0 0-.278.278c-1.036 1.143-1.036 2.911-1.036 6.446h7.75v-7.76Zm0 0v7.76h7.76v-7.76h-7.76Zm7.76 0v7.76h7.76c0-3.538 0-5.307-1.041-6.452a4.093 4.093 0 0 0-.267-.267c-1.145-1.041-2.914-1.041-6.452-1.041Zm15.52 0v7.76h7.75v-7.76h-7.75Zm19.39 0a3.88 3.88 0 1 0 0 7.76h3.88v-7.76h-3.88Zm3.88 0v7.76h7.76v-7.76h-7.76Zm7.76 0v7.76h7.75v-7.76h-7.75Zm27.15 0a3.88 3.88 0 1 0 0 7.76h3.88v-7.76h-3.88Zm3.88 0v7.76h7.75v-7.76h-7.75Zm15.51 0v7.76h7.76v-7.76h-7.76Zm7.76 0v7.76h7.76v-7.76h-7.76Zm7.76 0v7.76h7.75v-7.76h-7.75Zm7.75 0v7.76h7.76v-7.76h-7.76Zm7.76 0v7.76c3.538 0 5.307 0 6.452-1.041.093-.085.182-.174.267-.267 1.041-1.145 1.041-2.914 1.041-6.452h-7.76Zm23.27 0c-3.529 0-5.293 0-6.436 1.036a4.05 4.05 0 0 0-.278.278c-1.036 1.143-1.036 2.911-1.036 6.446h7.75v-7.76Zm0 0v7.76h7.76v-7.76h-7.76ZM0 162.91v7.76h7.76v-7.76H0Zm15.52 0v7.76h7.75v-7.76h-7.75Zm7.75 0v7.76h7.76v-7.76h-7.76Zm7.76 0v7.76h7.76v-7.76h-7.76Zm15.52 0v7.76h7.75v-7.76h-7.75Zm23.27 0v7.76h7.76v-7.76h-7.76Zm7.76 0v7.76h7.75v-7.76h-7.75Zm7.75 0v7.76h7.76c0-3.538 0-5.307-1.041-6.452a4.116 4.116 0 0 0-.267-.267c-1.144-1.041-2.914-1.041-6.452-1.041Zm23.28 0v7.76h7.75v-7.76h-7.75Zm7.75 0v7.76h7.76v-7.76h-7.76Zm54.31 0v7.76h7.75v-7.76h-7.75Zm15.51 0v7.76h3.88a3.88 3.88 0 1 0 0-7.76h-3.88ZM0 170.67v7.75h7.76v-7.75H0Zm15.52 0c0 3.529 0 5.293 1.036 6.436.088.097.18.19.278.278 1.143 1.036 2.907 1.036 6.436 1.036v-7.75h-7.75Zm7.75 0v7.75h7.76v-7.75h-7.76Zm7.76 0v7.75c3.535 0 5.303 0 6.446-1.036a4.05 4.05 0 0 0 .278-.278c1.036-1.143 1.036-2.907 1.036-6.436h-7.76Zm15.52 0v7.75h7.75v-7.75h-7.75Zm23.27 0c-3.535 0-5.303 0-6.446 1.036a4.05 4.05 0 0 0-.278.278c-1.036 1.143-1.036 2.907-1.036 6.436h7.76v-7.75Zm0 0v7.75h7.76v-7.75h-7.76Zm15.51 0v7.75h7.76v-7.75h-7.76Zm23.28 0v7.75h7.75v-7.75h-7.75Zm7.75 0v7.75h7.76v-7.75h-7.76Zm7.76 0v7.75h7.76v-7.75h-7.76Zm7.76 0v7.75h7.76c0-3.529 0-5.293-1.036-6.436a4.05 4.05 0 0 0-.278-.278c-1.143-1.036-2.911-1.036-6.446-1.036Zm38.79 0v7.75h7.75v-7.75h-7.75Zm7.75 0v7.75h7.76v-7.75h-7.76ZM0 178.42v7.76h7.76v-7.76H0Zm46.55 0v7.76h7.75v-7.76h-7.75Zm15.51 0v7.76h7.76v-7.76h-7.76Zm7.76 0v7.76h7.76v-7.76h-7.76Zm15.51 0v7.76h7.76v-7.76h-7.76Zm23.28 0c-3.538 0-5.307 0-6.452 1.041a4.203 4.203 0 0 0-.267.267c-1.041 1.145-1.041 2.914-1.041 6.452h7.76v-7.76Zm0 0v7.76h7.75v-7.76h-7.75Zm15.51 0v7.76h7.76v-7.76h-7.76Zm7.76 0v7.76h7.76v-7.76h-7.76Zm31.03 0c-3.538 0-5.307 0-6.452 1.041a4.203 4.203 0 0 0-.267.267c-1.041 1.145-1.041 2.914-1.041 6.452h7.76v-7.76Zm0 0v7.76h7.76v-7.76h-7.76Zm7.76 0v7.76h7.75v-7.76h-7.75Zm7.75 0v7.76h7.76v-7.76h-7.76ZM0 186.18c0 3.538 0 5.307 1.041 6.452a4.1 4.1 0 0 0 .267.267c1.145 1.041 2.914 1.041 6.452 1.041v-7.76H0Zm7.76 0v7.76h7.76v-7.76H7.76Zm7.76 0v7.76h7.75v-7.76h-7.75Zm7.75 0v7.76h7.76v-7.76h-7.76Zm7.76 0v7.76h7.76v-7.76h-7.76Zm7.76 0v7.76h7.76v-7.76h-7.76Zm7.76 0v7.76c3.529 0 5.293 0 6.436-1.036a4.05 4.05 0 0 0 .278-.278c1.036-1.143 1.036-2.911 1.036-6.446h-7.75Zm15.51 0v3.88a3.88 3.88 0 1 0 7.76 0v-3.88h-7.76Zm15.52 0c0 3.535 0 5.303 1.036 6.446.088.097.18.19.278.278 1.143 1.036 2.907 1.036 6.436 1.036v-7.76h-7.75Zm7.75 0v7.76h7.76v-7.76h-7.76Zm7.76 0v7.76c3.538 0 5.307 0 6.452-1.041a3.94 3.94 0 0 0 .266-.267c1.042-1.145 1.042-2.914 1.042-6.452h-7.76Zm15.52 0c0 3.535 0 5.303 1.036 6.446.088.097.181.19.278.278 1.143 1.036 2.907 1.036 6.436 1.036v-7.76h-7.75Zm7.75 0v7.76c3.538 0 5.307 0 6.452-1.041.093-.085.182-.174.267-.267 1.041-1.145 1.041-2.914 1.041-6.452h-7.76Zm23.28 0c0 3.535 0 5.303 1.036 6.446.088.097.181.19.278.278 1.143 1.036 2.907 1.036 6.436 1.036v-7.76h-7.75Zm7.75 0v7.76h7.76v-7.76h-7.76Zm7.76 0v7.76h7.76v-7.76h-7.76Zm7.76 0v7.76h7.76v-7.76h-7.76Zm7.76 0v7.76h7.75v-7.76h-7.75Zm7.75 0v7.76h7.76v-7.76h-7.76Zm7.76 0v7.76h3.88a3.88 3.88 0 1 0 0-7.76h-3.88Z" fill="#fff"/></svg>