<svg width="264" height="264" viewBox="0 0 264 264" fill="none" xmlns="http://www.w3.org/2000/svg">
<path d="M264 0H0V264H264V0Z" fill="white"/>
<path d="M10.56 0H0V10.56H10.56V0Z" fill="black"/>
<path d="M10.56 10.56H0V21.12H10.56V10.56Z" fill="black"/>
<path d="M10.56 21.12H0V31.68H10.56V21.12Z" fill="black"/>
<path d="M10.56 31.68H0V42.24H10.56V31.68Z" fill="black"/>
<path d="M10.56 42.24H0V52.8H10.56V42.24Z" fill="black"/>
<path d="M10.56 52.8H0V63.36H10.56V52.8Z" fill="black"/>
<path d="M10.56 63.36H0V73.92H10.56V63.36Z" fill="black"/>
<path d="M10.56 84.48H0V95.04H10.56V84.48Z" fill="black"/>
<path d="M10.56 116.16H0V126.72H10.56V116.16Z" fill="black"/>
<path d="M10.56 137.28H0V147.84H10.56V137.28Z" fill="black"/>
<path d="M10.56 158.4H0V168.96H10.56V158.4Z" fill="black"/>
<path d="M10.56 190.08H0V200.64H10.56V190.08Z" fill="black"/>
<path d="M10.56 200.64H0V211.2H10.56V200.64Z" fill="black"/>
<path d="M10.56 211.2H0V221.76H10.56V211.2Z" fill="black"/>
<path d="M10.56 221.76H0V232.32H10.56V221.76Z" fill="black"/>
<path d="M10.56 232.32H0V242.88H10.56V232.32Z" fill="black"/>
<path d="M10.56 242.88H0V253.44H10.56V242.88Z" fill="black"/>
<path d="M10.56 253.44H0V264H10.56V253.44Z" fill="black"/>
<path d="M21.12 0H10.56V10.56H21.12V0Z" fill="black"/>
<path d="M21.12 63.36H10.56V73.92H21.12V63.36Z" fill="black"/>
<path d="M21.12 84.48H10.56V95.04H21.12V84.48Z" fill="black"/>
<path d="M21.12 95.04H10.56V105.6H21.12V95.04Z" fill="black"/>
<path d="M21.12 116.16H10.56V126.72H21.12V116.16Z" fill="black"/>
<path d="M21.12 126.72H10.56V137.28H21.12V126.72Z" fill="black"/>
<path d="M21.12 137.28H10.56V147.84H21.12V137.28Z" fill="black"/>
<path d="M21.12 147.84H10.56V158.4H21.12V147.84Z" fill="black"/>
<path d="M21.12 168.96H10.56V179.52H21.12V168.96Z" fill="black"/>
<path d="M21.12 190.08H10.56V200.64H21.12V190.08Z" fill="black"/>
<path d="M21.12 253.44H10.56V264H21.12V253.44Z" fill="black"/>
<path d="M31.68 0H21.12V10.56H31.68V0Z" fill="black"/>
<path d="M31.68 21.12H21.12V31.68H31.68V21.12Z" fill="black"/>
<path d="M31.68 31.68H21.12V42.24H31.68V31.68Z" fill="black"/>
<path d="M31.68 42.24H21.12V52.8H31.68V42.24Z" fill="black"/>
<path d="M31.68 63.36H21.12V73.92H31.68V63.36Z" fill="black"/>
<path d="M31.68 84.48H21.12V95.04H31.68V84.48Z" fill="black"/>
<path d="M31.68 126.72H21.12V137.28H31.68V126.72Z" fill="black"/>
<path d="M31.68 137.28H21.12V147.84H31.68V137.28Z" fill="black"/>
<path d="M31.68 158.4H21.12V168.96H31.68V158.4Z" fill="black"/>
<path d="M31.68 168.96H21.12V179.52H31.68V168.96Z" fill="black"/>
<path d="M31.68 190.08H21.12V200.64H31.68V190.08Z" fill="black"/>
<path d="M31.68 211.2H21.12V221.76H31.68V211.2Z" fill="black"/>
<path d="M31.68 221.76H21.12V232.32H31.68V221.76Z" fill="black"/>
<path d="M31.68 232.32H21.12V242.88H31.68V232.32Z" fill="black"/>
<path d="M31.68 253.44H21.12V264H31.68V253.44Z" fill="black"/>
<path d="M42.24 0H31.68V10.56H42.24V0Z" fill="black"/>
<path d="M42.24 21.12H31.68V31.68H42.24V21.12Z" fill="black"/>
<path d="M42.24 31.68H31.68V42.24H42.24V31.68Z" fill="black"/>
<path d="M42.24 42.24H31.68V52.8H42.24V42.24Z" fill="black"/>
<path d="M42.24 63.36H31.68V73.92H42.24V63.36Z" fill="black"/>
<path d="M42.24 116.16H31.68V126.72H42.24V116.16Z" fill="black"/>
<path d="M42.24 147.84H31.68V158.4H42.24V147.84Z" fill="black"/>
<path d="M42.24 190.08H31.68V200.64H42.24V190.08Z" fill="black"/>
<path d="M42.24 211.2H31.68V221.76H42.24V211.2Z" fill="black"/>
<path d="M42.24 221.76H31.68V232.32H42.24V221.76Z" fill="black"/>
<path d="M42.24 232.32H31.68V242.88H42.24V232.32Z" fill="black"/>
<path d="M42.24 253.44H31.68V264H42.24V253.44Z" fill="black"/>
<path d="M52.8 0H42.24V10.56H52.8V0Z" fill="black"/>
<path d="M52.8 21.12H42.24V31.68H52.8V21.12Z" fill="black"/>
<path d="M52.8 31.68H42.24V42.24H52.8V31.68Z" fill="black"/>
<path d="M52.8 42.24H42.24V52.8H52.8V42.24Z" fill="black"/>
<path d="M52.8 63.36H42.24V73.92H52.8V63.36Z" fill="black"/>
<path d="M52.8 84.48H42.24V95.04H52.8V84.48Z" fill="black"/>
<path d="M52.8 95.04H42.24V105.6H52.8V95.04Z" fill="black"/>
<path d="M52.8 116.16H42.24V126.72H52.8V116.16Z" fill="black"/>
<path d="M52.8 126.72H42.24V137.28H52.8V126.72Z" fill="black"/>
<path d="M52.8 137.28H42.24V147.84H52.8V137.28Z" fill="black"/>
<path d="M52.8 147.84H42.24V158.4H52.8V147.84Z" fill="black"/>
<path d="M52.8 158.4H42.24V168.96H52.8V158.4Z" fill="black"/>
<path d="M52.8 168.96H42.24V179.52H52.8V168.96Z" fill="black"/>
<path d="M52.8 190.08H42.24V200.64H52.8V190.08Z" fill="black"/>
<path d="M52.8 211.2H42.24V221.76H52.8V211.2Z" fill="black"/>
<path d="M52.8 221.76H42.24V232.32H52.8V221.76Z" fill="black"/>
<path d="M52.8 232.32H42.24V242.88H52.8V232.32Z" fill="black"/>
<path d="M52.8 253.44H42.24V264H52.8V253.44Z" fill="black"/>
<path d="M63.36 0H52.8V10.56H63.36V0Z" fill="black"/>
<path d="M63.36 63.36H52.8V73.92H63.36V63.36Z" fill="black"/>
<path d="M63.36 84.48H52.8V95.04H63.36V84.48Z" fill="black"/>
<path d="M63.36 105.6H52.8V116.16H63.36V105.6Z" fill="black"/>
<path d="M63.36 116.16H52.8V126.72H63.36V116.16Z" fill="black"/>
<path d="M63.36 126.72H52.8V137.28H63.36V126.72Z" fill="black"/>
<path d="M63.36 137.28H52.8V147.84H63.36V137.28Z" fill="black"/>
<path d="M63.36 158.4H52.8V168.96H63.36V158.4Z" fill="black"/>
<path d="M63.36 190.08H52.8V200.64H63.36V190.08Z" fill="black"/>
<path d="M63.36 253.44H52.8V264H63.36V253.44Z" fill="black"/>
<path d="M73.92 0H63.36V10.56H73.92V0Z" fill="black"/>
<path d="M73.92 10.56H63.36V21.12H73.92V10.56Z" fill="black"/>
<path d="M73.92 21.12H63.36V31.68H73.92V21.12Z" fill="black"/>
<path d="M73.92 31.68H63.36V42.24H73.92V31.68Z" fill="black"/>
<path d="M73.92 42.24H63.36V52.8H73.92V42.24Z" fill="black"/>
<path d="M73.92 52.8H63.36V63.36H73.92V52.8Z" fill="black"/>
<path d="M73.92 63.36H63.36V73.92H73.92V63.36Z" fill="black"/>
<path d="M73.92 84.48H63.36V95.04H73.92V84.48Z" fill="black"/>
<path d="M73.92 105.6H63.36V116.16H73.92V105.6Z" fill="black"/>
<path d="M73.92 126.72H63.36V137.28H73.92V126.72Z" fill="black"/>
<path d="M73.92 147.84H63.36V158.4H73.92V147.84Z" fill="black"/>
<path d="M73.92 168.96H63.36V179.52H73.92V168.96Z" fill="black"/>
<path d="M73.92 190.08H63.36V200.64H73.92V190.08Z" fill="black"/>
<path d="M73.92 200.64H63.36V211.2H73.92V200.64Z" fill="black"/>
<path d="M73.92 211.2H63.36V221.76H73.92V211.2Z" fill="black"/>
<path d="M73.92 221.76H63.36V232.32H73.92V221.76Z" fill="black"/>
<path d="M73.92 232.32H63.36V242.88H73.92V232.32Z" fill="black"/>
<path d="M73.92 242.88H63.36V253.44H73.92V242.88Z" fill="black"/>
<path d="M73.92 253.44H63.36V264H73.92V253.44Z" fill="black"/>
<path d="M84.48 84.48H73.92V95.04H84.48V84.48Z" fill="black"/>
<path d="M84.48 95.04H73.92V105.6H84.48V95.04Z" fill="black"/>
<path d="M84.48 105.6H73.92V116.16H84.48V105.6Z" fill="black"/>
<path d="M84.48 137.28H73.92V147.84H84.48V137.28Z" fill="black"/>
<path d="M84.48 168.96H73.92V179.52H84.48V168.96Z" fill="black"/>
<path d="M95.04 21.12H84.48V31.68H95.04V21.12Z" fill="black"/>
<path d="M95.04 63.36H84.48V73.92H95.04V63.36Z" fill="black"/>
<path d="M95.04 73.92H84.48V84.48H95.04V73.92Z" fill="black"/>
<path d="M95.04 84.48H84.48V95.04H95.04V84.48Z" fill="black"/>
<path d="M95.04 105.6H84.48V116.16H95.04V105.6Z" fill="black"/>
<path d="M95.04 126.72H84.48V137.28H95.04V126.72Z" fill="black"/>
<path d="M95.04 147.84H84.48V158.4H95.04V147.84Z" fill="black"/>
<path d="M95.04 158.4H84.48V168.96H95.04V158.4Z" fill="black"/>
<path d="M95.04 168.96H84.48V179.52H95.04V168.96Z" fill="black"/>
<path d="M95.04 179.52H84.48V190.08H95.04V179.52Z" fill="black"/>
<path d="M95.04 190.08H84.48V200.64H95.04V190.08Z" fill="black"/>
<path d="M95.04 200.64H84.48V211.2H95.04V200.64Z" fill="black"/>
<path d="M95.04 211.2H84.48V221.76H95.04V211.2Z" fill="black"/>
<path d="M95.04 232.32H84.48V242.88H95.04V232.32Z" fill="black"/>
<path d="M95.04 242.88H84.48V253.44H95.04V242.88Z" fill="black"/>
<path d="M95.04 253.44H84.48V264H95.04V253.44Z" fill="black"/>
<path d="M105.6 0H95.04V10.56H105.6V0Z" fill="black"/>
<path d="M105.6 21.12H95.04V31.68H105.6V21.12Z" fill="black"/>
<path d="M105.6 31.68H95.04V42.24H105.6V31.68Z" fill="black"/>
<path d="M105.6 52.8H95.04V63.36H105.6V52.8Z" fill="black"/>
<path d="M105.6 73.92H95.04V84.48H105.6V73.92Z" fill="black"/>
<path d="M105.6 105.6H95.04V116.16H105.6V105.6Z" fill="black"/>
<path d="M105.6 158.4H95.04V168.96H105.6V158.4Z" fill="black"/>
<path d="M105.6 200.64H95.04V211.2H105.6V200.64Z" fill="black"/>
<path d="M105.6 211.2H95.04V221.76H105.6V211.2Z" fill="black"/>
<path d="M105.6 242.88H95.04V253.44H105.6V242.88Z" fill="black"/>
<path d="M116.16 10.56H105.6V21.12H116.16V10.56Z" fill="black"/>
<path d="M116.16 21.12H105.6V31.68H116.16V21.12Z" fill="black"/>
<path d="M116.16 31.68H105.6V42.24H116.16V31.68Z" fill="black"/>
<path d="M116.16 42.24H105.6V52.8H116.16V42.24Z" fill="black"/>
<path d="M116.16 63.36H105.6V73.92H116.16V63.36Z" fill="black"/>
<path d="M116.16 73.92H105.6V84.48H116.16V73.92Z" fill="black"/>
<path d="M116.16 84.48H105.6V95.04H116.16V84.48Z" fill="black"/>
<path d="M116.16 95.04H105.6V105.6H116.16V95.04Z" fill="black"/>
<path d="M116.16 147.84H105.6V158.4H116.16V147.84Z" fill="black"/>
<path d="M116.16 168.96H105.6V179.52H116.16V168.96Z" fill="black"/>
<path d="M116.16 179.52H105.6V190.08H116.16V179.52Z" fill="black"/>
<path d="M116.16 211.2H105.6V221.76H116.16V211.2Z" fill="black"/>
<path d="M116.16 221.76H105.6V232.32H116.16V221.76Z" fill="black"/>
<path d="M116.16 242.88H105.6V253.44H116.16V242.88Z" fill="black"/>
<path d="M116.16 253.44H105.6V264H116.16V253.44Z" fill="black"/>
<path d="M126.72 10.56H116.16V21.12H126.72V10.56Z" fill="black"/>
<path d="M126.72 31.68H116.16V42.24H126.72V31.68Z" fill="black"/>
<path d="M126.72 84.48H116.16V95.04H126.72V84.48Z" fill="black"/>
<path d="M126.72 95.04H116.16V105.6H126.72V95.04Z" fill="black"/>
<path d="M126.72 116.16H116.16V126.72H126.72V116.16Z" fill="black"/>
<path d="M126.72 137.28H116.16V147.84H126.72V137.28Z" fill="black"/>
<path d="M126.72 147.84H116.16V158.4H126.72V147.84Z" fill="black"/>
<path d="M126.72 168.96H116.16V179.52H126.72V168.96Z" fill="black"/>
<path d="M126.72 179.52H116.16V190.08H126.72V179.52Z" fill="black"/>
<path d="M126.72 200.64H116.16V211.2H126.72V200.64Z" fill="black"/>
<path d="M126.72 221.76H116.16V232.32H126.72V221.76Z" fill="black"/>
<path d="M126.72 232.32H116.16V242.88H126.72V232.32Z" fill="black"/>
<path d="M126.72 253.44H116.16V264H126.72V253.44Z" fill="black"/>
<path d="M137.28 0H126.72V10.56H137.28V0Z" fill="black"/>
<path d="M137.28 10.56H126.72V21.12H137.28V10.56Z" fill="black"/>
<path d="M137.28 21.12H126.72V31.68H137.28V21.12Z" fill="black"/>
<path d="M137.28 63.36H126.72V73.92H137.28V63.36Z" fill="black"/>
<path d="M137.28 73.92H126.72V84.48H137.28V73.92Z" fill="black"/>
<path d="M137.28 126.72H126.72V137.28H137.28V126.72Z" fill="black"/>
<path d="M137.28 137.28H126.72V147.84H137.28V137.28Z" fill="black"/>
<path d="M137.28 147.84H126.72V158.4H137.28V147.84Z" fill="black"/>
<path d="M137.28 158.4H126.72V168.96H137.28V158.4Z" fill="black"/>
<path d="M137.28 211.2H126.72V221.76H137.28V211.2Z" fill="black"/>
<path d="M137.28 221.76H126.72V232.32H137.28V221.76Z" fill="black"/>
<path d="M137.28 232.32H126.72V242.88H137.28V232.32Z" fill="black"/>
<path d="M137.28 242.88H126.72V253.44H137.28V242.88Z" fill="black"/>
<path d="M147.84 0H137.28V10.56H147.84V0Z" fill="black"/>
<path d="M147.84 52.8H137.28V63.36H147.84V52.8Z" fill="black"/>
<path d="M147.84 73.92H137.28V84.48H147.84V73.92Z" fill="black"/>
<path d="M147.84 84.48H137.28V95.04H147.84V84.48Z" fill="black"/>
<path d="M147.84 95.04H137.28V105.6H147.84V95.04Z" fill="black"/>
<path d="M147.84 116.16H137.28V126.72H147.84V116.16Z" fill="black"/>
<path d="M147.84 126.72H137.28V137.28H147.84V126.72Z" fill="black"/>
<path d="M147.84 147.84H137.28V158.4H147.84V147.84Z" fill="black"/>
<path d="M147.84 158.4H137.28V168.96H147.84V158.4Z" fill="black"/>
<path d="M147.84 190.08H137.28V200.64H147.84V190.08Z" fill="black"/>
<path d="M147.84 221.76H137.28V232.32H147.84V221.76Z" fill="black"/>
<path d="M147.84 242.88H137.28V253.44H147.84V242.88Z" fill="black"/>
<path d="M158.4 0H147.84V10.56H158.4V0Z" fill="black"/>
<path d="M158.4 10.56H147.84V21.12H158.4V10.56Z" fill="black"/>
<path d="M158.4 21.12H147.84V31.68H158.4V21.12Z" fill="black"/>
<path d="M158.4 31.68H147.84V42.24H158.4V31.68Z" fill="black"/>
<path d="M158.4 42.24H147.84V52.8H158.4V42.24Z" fill="black"/>
<path d="M158.4 52.8H147.84V63.36H158.4V52.8Z" fill="black"/>
<path d="M158.4 63.36H147.84V73.92H158.4V63.36Z" fill="black"/>
<path d="M158.4 73.92H147.84V84.48H158.4V73.92Z" fill="black"/>
<path d="M158.4 95.04H147.84V105.6H158.4V95.04Z" fill="black"/>
<path d="M158.4 126.72H147.84V137.28H158.4V126.72Z" fill="black"/>
<path d="M158.4 158.4H147.84V168.96H158.4V158.4Z" fill="black"/>
<path d="M158.4 168.96H147.84V179.52H158.4V168.96Z" fill="black"/>
<path d="M158.4 232.32H147.84V242.88H158.4V232.32Z" fill="black"/>
<path d="M158.4 242.88H147.84V253.44H158.4V242.88Z" fill="black"/>
<path d="M158.4 253.44H147.84V264H158.4V253.44Z" fill="black"/>
<path d="M168.96 0H158.4V10.56H168.96V0Z" fill="black"/>
<path d="M168.96 10.56H158.4V21.12H168.96V10.56Z" fill="black"/>
<path d="M168.96 21.12H158.4V31.68H168.96V21.12Z" fill="black"/>
<path d="M168.96 42.24H158.4V52.8H168.96V42.24Z" fill="black"/>
<path d="M168.96 52.8H158.4V63.36H168.96V52.8Z" fill="black"/>
<path d="M168.96 84.48H158.4V95.04H168.96V84.48Z" fill="black"/>
<path d="M168.96 126.72H158.4V137.28H168.96V126.72Z" fill="black"/>
<path d="M168.96 158.4H158.4V168.96H168.96V158.4Z" fill="black"/>
<path d="M168.96 168.96H158.4V179.52H168.96V168.96Z" fill="black"/>
<path d="M168.96 179.52H158.4V190.08H168.96V179.52Z" fill="black"/>
<path d="M168.96 190.08H158.4V200.64H168.96V190.08Z" fill="black"/>
<path d="M168.96 253.44H158.4V264H168.96V253.44Z" fill="black"/>
<path d="M179.52 42.24H168.96V52.8H179.52V42.24Z" fill="black"/>
<path d="M179.52 52.8H168.96V63.36H179.52V52.8Z" fill="black"/>
<path d="M179.52 63.36H168.96V73.92H179.52V63.36Z" fill="black"/>
<path d="M179.52 73.92H168.96V84.48H179.52V73.92Z" fill="black"/>
<path d="M179.52 84.48H168.96V95.04H179.52V84.48Z" fill="black"/>
<path d="M179.52 95.04H168.96V105.6H179.52V95.04Z" fill="black"/>
<path d="M179.52 126.72H168.96V137.28H179.52V126.72Z" fill="black"/>
<path d="M179.52 137.28H168.96V147.84H179.52V137.28Z" fill="black"/>
<path d="M179.52 147.84H168.96V158.4H179.52V147.84Z" fill="black"/>
<path d="M179.52 168.96H168.96V179.52H179.52V168.96Z" fill="black"/>
<path d="M179.52 179.52H168.96V190.08H179.52V179.52Z" fill="black"/>
<path d="M179.52 190.08H168.96V200.64H179.52V190.08Z" fill="black"/>
<path d="M179.52 200.64H168.96V211.2H179.52V200.64Z" fill="black"/>
<path d="M179.52 211.2H168.96V221.76H179.52V211.2Z" fill="black"/>
<path d="M179.52 221.76H168.96V232.32H179.52V221.76Z" fill="black"/>
<path d="M179.52 232.32H168.96V242.88H179.52V232.32Z" fill="black"/>
<path d="M179.52 242.88H168.96V253.44H179.52V242.88Z" fill="black"/>
<path d="M179.52 253.44H168.96V264H179.52V253.44Z" fill="black"/>
<path d="M190.08 84.48H179.52V95.04H190.08V84.48Z" fill="black"/>
<path d="M190.08 95.04H179.52V105.6H190.08V95.04Z" fill="black"/>
<path d="M190.08 105.6H179.52V116.16H190.08V105.6Z" fill="black"/>
<path d="M190.08 126.72H179.52V137.28H190.08V126.72Z" fill="black"/>
<path d="M190.08 158.4H179.52V168.96H190.08V158.4Z" fill="black"/>
<path d="M190.08 168.96H179.52V179.52H190.08V168.96Z" fill="black"/>
<path d="M190.08 211.2H179.52V221.76H190.08V211.2Z" fill="black"/>
<path d="M190.08 253.44H179.52V264H190.08V253.44Z" fill="black"/>
<path d="M200.64 0H190.08V10.56H200.64V0Z" fill="black"/>
<path d="M200.64 10.56H190.08V21.12H200.64V10.56Z" fill="black"/>
<path d="M200.64 21.12H190.08V31.68H200.64V21.12Z" fill="black"/>
<path d="M200.64 31.68H190.08V42.24H200.64V31.68Z" fill="black"/>
<path d="M200.64 42.24H190.08V52.8H200.64V42.24Z" fill="black"/>
<path d="M200.64 52.8H190.08V63.36H200.64V52.8Z" fill="black"/>
<path d="M200.64 63.36H190.08V73.92H200.64V63.36Z" fill="black"/>
<path d="M200.64 84.48H190.08V95.04H200.64V84.48Z" fill="black"/>
<path d="M200.64 95.04H190.08V105.6H200.64V95.04Z" fill="black"/>
<path d="M200.64 105.6H190.08V116.16H200.64V105.6Z" fill="black"/>
<path d="M200.64 126.72H190.08V137.28H200.64V126.72Z" fill="black"/>
<path d="M200.64 137.28H190.08V147.84H200.64V137.28Z" fill="black"/>
<path d="M200.64 147.84H190.08V158.4H200.64V147.84Z" fill="black"/>
<path d="M200.64 158.4H190.08V168.96H200.64V158.4Z" fill="black"/>
<path d="M200.64 168.96H190.08V179.52H200.64V168.96Z" fill="black"/>
<path d="M200.64 190.08H190.08V200.64H200.64V190.08Z" fill="black"/>
<path d="M200.64 211.2H190.08V221.76H200.64V211.2Z" fill="black"/>
<path d="M200.64 253.44H190.08V264H200.64V253.44Z" fill="black"/>
<path d="M211.2 0H200.64V10.56H211.2V0Z" fill="black"/>
<path d="M211.2 63.36H200.64V73.92H211.2V63.36Z" fill="black"/>
<path d="M211.2 126.72H200.64V137.28H211.2V126.72Z" fill="black"/>
<path d="M211.2 147.84H200.64V158.4H211.2V147.84Z" fill="black"/>
<path d="M211.2 168.96H200.64V179.52H211.2V168.96Z" fill="black"/>
<path d="M211.2 211.2H200.64V221.76H211.2V211.2Z" fill="black"/>
<path d="M211.2 221.76H200.64V232.32H211.2V221.76Z" fill="black"/>
<path d="M211.2 253.44H200.64V264H211.2V253.44Z" fill="black"/>
<path d="M221.76 0H211.2V10.56H221.76V0Z" fill="black"/>
<path d="M221.76 21.12H211.2V31.68H221.76V21.12Z" fill="black"/>
<path d="M221.76 31.68H211.2V42.24H221.76V31.68Z" fill="black"/>
<path d="M221.76 42.24H211.2V52.8H221.76V42.24Z" fill="black"/>
<path d="M221.76 63.36H211.2V73.92H221.76V63.36Z" fill="black"/>
<path d="M221.76 105.6H211.2V116.16H221.76V105.6Z" fill="black"/>
<path d="M221.76 158.4H211.2V168.96H221.76V158.4Z" fill="black"/>
<path d="M221.76 168.96H211.2V179.52H221.76V168.96Z" fill="black"/>
<path d="M221.76 179.52H211.2V190.08H221.76V179.52Z" fill="black"/>
<path d="M221.76 190.08H211.2V200.64H221.76V190.08Z" fill="black"/>
<path d="M221.76 200.64H211.2V211.2H221.76V200.64Z" fill="black"/>
<path d="M221.76 211.2H211.2V221.76H221.76V211.2Z" fill="black"/>
<path d="M221.76 221.76H211.2V232.32H221.76V221.76Z" fill="black"/>
<path d="M221.76 232.32H211.2V242.88H221.76V232.32Z" fill="black"/>
<path d="M221.76 242.88H211.2V253.44H221.76V242.88Z" fill="black"/>
<path d="M232.32 0H221.76V10.56H232.32V0Z" fill="black"/>
<path d="M232.32 21.12H221.76V31.68H232.32V21.12Z" fill="black"/>
<path d="M232.32 31.68H221.76V42.24H232.32V31.68Z" fill="black"/>
<path d="M232.32 42.24H221.76V52.8H232.32V42.24Z" fill="black"/>
<path d="M232.32 63.36H221.76V73.92H232.32V63.36Z" fill="black"/>
<path d="M232.32 126.72H221.76V137.28H232.32V126.72Z" fill="black"/>
<path d="M232.32 137.28H221.76V147.84H232.32V137.28Z" fill="black"/>
<path d="M232.32 168.96H221.76V179.52H232.32V168.96Z" fill="black"/>
<path d="M232.32 179.52H221.76V190.08H232.32V179.52Z" fill="black"/>
<path d="M232.32 190.08H221.76V200.64H232.32V190.08Z" fill="black"/>
<path d="M232.32 200.64H221.76V211.2H232.32V200.64Z" fill="black"/>
<path d="M232.32 211.2H221.76V221.76H232.32V211.2Z" fill="black"/>
<path d="M232.32 221.76H221.76V232.32H232.32V221.76Z" fill="black"/>
<path d="M232.32 242.88H221.76V253.44H232.32V242.88Z" fill="black"/>
<path d="M242.88 0H232.32V10.56H242.88V0Z" fill="black"/>
<path d="M242.88 21.12H232.32V31.68H242.88V21.12Z" fill="black"/>
<path d="M242.88 31.68H232.32V42.24H242.88V31.68Z" fill="black"/>
<path d="M242.88 42.24H232.32V52.8H242.88V42.24Z" fill="black"/>
<path d="M242.88 63.36H232.32V73.92H242.88V63.36Z" fill="black"/>
<path d="M242.88 84.48H232.32V95.04H242.88V84.48Z" fill="black"/>
<path d="M242.88 105.6H232.32V116.16H242.88V105.6Z" fill="black"/>
<path d="M242.88 147.84H232.32V158.4H242.88V147.84Z" fill="black"/>
<path d="M242.88 221.76H232.32V232.32H242.88V221.76Z" fill="black"/>
<path d="M253.44 0H242.88V10.56H253.44V0Z" fill="black"/>
<path d="M253.44 63.36H242.88V73.92H253.44V63.36Z" fill="black"/>
<path d="M253.44 105.6H242.88V116.16H253.44V105.6Z" fill="black"/>
<path d="M253.44 116.16H242.88V126.72H253.44V116.16Z" fill="black"/>
<path d="M253.44 126.72H242.88V137.28H253.44V126.72Z" fill="black"/>
<path d="M253.44 147.84H242.88V158.4H253.44V147.84Z" fill="black"/>
<path d="M253.44 158.4H242.88V168.96H253.44V158.4Z" fill="black"/>
<path d="M253.44 179.52H242.88V190.08H253.44V179.52Z" fill="black"/>
<path d="M253.44 190.08H242.88V200.64H253.44V190.08Z" fill="black"/>
<path d="M253.44 211.2H242.88V221.76H253.44V211.2Z" fill="black"/>
<path d="M253.44 242.88H242.88V253.44H253.44V242.88Z" fill="black"/>
<path d="M253.44 253.44H242.88V264H253.44V253.44Z" fill="black"/>
<path d="M264 0H253.44V10.56H264V0Z" fill="black"/>
<path d="M264 10.56H253.44V21.12H264V10.56Z" fill="black"/>
<path d="M264 21.12H253.44V31.68H264V21.12Z" fill="black"/>
<path d="M264 31.68H253.44V42.24H264V31.68Z" fill="black"/>
<path d="M264 42.24H253.44V52.8H264V42.24Z" fill="black"/>
<path d="M264 52.8H253.44V63.36H264V52.8Z" fill="black"/>
<path d="M264 63.36H253.44V73.92H264V63.36Z" fill="black"/>
<path d="M264 95.04H253.44V105.6H264V95.04Z" fill="black"/>
<path d="M264 105.6H253.44V116.16H264V105.6Z" fill="black"/>
<path d="M264 126.72H253.44V137.28H264V126.72Z" fill="black"/>
<path d="M264 137.28H253.44V147.84H264V137.28Z" fill="black"/>
<path d="M264 147.84H253.44V158.4H264V147.84Z" fill="black"/>
<path d="M264 179.52H253.44V190.08H264V179.52Z" fill="black"/>
<path d="M264 190.08H253.44V200.64H264V190.08Z" fill="black"/>
<path d="M264 211.2H253.44V221.76H264V211.2Z" fill="black"/>
<path d="M264 232.32H253.44V242.88H264V232.32Z" fill="black"/>
<path d="M264 253.44H253.44V264H264V253.44Z" fill="black"/>
</svg>
