<svg width="512" height="512" viewBox="0 0 512 512" fill="none" xmlns="http://www.w3.org/2000/svg">
<mask id="mask0" style="mask-type:alpha" maskUnits="userSpaceOnUse" x="0" y="0" width="512" height="512">
<path d="M0 187.187C0 33.0386 33.0386 0 187.187 0H324.813C478.961 0 512 33.0386 512 187.187V324.813C512 478.961 478.961 512 324.813 512H187.187C33.0386 512 0 478.961 0 324.813V187.187Z" fill="#FEF3BA"/>
</mask>
<g mask="url(#mask0)">
<rect x="-95" y="-73" width="914" height="702" fill="#E0F2FE"/>
<path d="M96.8564 218.701H59.2832V189.434H96.8564V141.05H135.88V189.434H173.453V218.701H135.88V345H96.8564V218.701ZM187.243 266.689C187.243 256.143 189.396 246.079 193.703 236.499C198.01 226.831 204.206 218.306 212.292 210.923C220.378 203.54 230.266 197.651 241.955 193.257C253.732 188.862 267.092 186.665 282.033 186.665C296.887 186.665 310.246 188.906 322.111 193.389C334.064 197.783 344.172 203.848 352.434 211.582C360.783 219.316 367.155 228.413 371.55 238.872C376.032 249.331 378.273 260.537 378.273 272.49C378.273 273.984 378.229 275.61 378.142 277.368C378.142 279.038 378.054 280.576 377.878 281.982H230.749C232.419 286.641 235.1 290.903 238.791 294.771C242.57 298.638 247.272 301.978 252.897 304.79C258.522 307.603 265.026 309.8 272.409 311.382C279.792 312.876 287.966 313.623 296.931 313.623C305.896 313.623 314.816 312.7 323.693 310.854C332.57 308.921 341.052 306.504 349.138 303.604L362.321 333.398C357.224 335.771 352.038 337.881 346.765 339.727C341.579 341.484 336.13 342.979 330.417 344.209C324.792 345.352 318.859 346.23 312.619 346.846C306.467 347.461 299.963 347.769 293.107 347.769C275.617 347.769 260.28 345.659 247.097 341.44C233.913 337.222 222.883 331.465 214.006 324.17C205.129 316.875 198.449 308.306 193.967 298.462C189.484 288.618 187.243 278.027 187.243 266.689ZM336.877 251.528C335.471 247.222 333.273 243.223 330.285 239.531C327.385 235.752 323.737 232.5 319.343 229.775C314.948 226.963 309.851 224.766 304.05 223.184C298.249 221.602 291.877 220.811 284.934 220.811C277.551 220.811 270.827 221.646 264.763 223.315C258.698 224.985 253.381 227.227 248.811 230.039C244.24 232.852 240.417 236.104 237.341 239.795C234.353 243.486 232.155 247.397 230.749 251.528H336.877ZM406.829 189.434H445.853V211.846C454.466 205.43 463.562 199.893 473.143 195.234C482.723 190.576 492.259 187.017 501.751 184.556L513.221 220.283C498.191 221.777 484.964 225.161 473.538 230.435C462.2 235.62 452.972 242.959 445.853 252.451V345H406.829V189.434Z" fill="#1A1A1A"/>
</g>
</svg>
