<svg width="490" height="490" viewBox="0 0 490 490" fill="none" xmlns="http://www.w3.org/2000/svg">
<path d="M0 3C0 1.34315 1.34315 0 3 0H10V10H0V3ZM10 0H20V10H10V0ZM20 0H30V10H20V0ZM30 0H40V10H30V0ZM40 0H50V10H40V0ZM50 0H60V10H50V0ZM60 0H67C68.6569 0 70 1.34315 70 3V10H60V0ZM90 3C90 1.34315 91.3431 0 93 0H100V10H90V3ZM100 0H107C108.657 0 110 1.34315 110 3V7C110 8.65685 108.657 10 107 10H100V0ZM120 3C120 1.34315 121.343 0 123 0H127C128.657 0 130 1.34315 130 3V10H123C121.343 10 120 8.65685 120 7V3ZM140 3C140 1.34315 141.343 0 143 0H147C148.657 0 150 1.34315 150 3V7C150 8.65685 148.657 10 147 10H140V3ZM170 3C170 1.34315 171.343 0 173 0H180V10H170V3ZM180 0H187C188.657 0 190 1.34315 190 3V10H180V0ZM200 3C200 1.34315 201.343 0 203 0H210V10H200V3ZM210 0H217C218.657 0 220 1.34315 220 3V7C220 8.65685 218.657 10 217 10H210V0ZM230 3C230 1.34315 231.343 0 233 0H237C238.657 0 240 1.34315 240 3V10H230V3ZM250 3C250 1.34315 251.343 0 253 0H257C258.657 0 260 1.34315 260 3V7C260 8.65685 258.657 10 257 10H253C251.343 10 250 8.65685 250 7V3ZM300 3C300 1.34315 301.343 0 303 0H307C308.657 0 310 1.34315 310 3V10H303C301.343 10 300 8.65685 300 7V3ZM340 3C340 1.34315 341.343 0 343 0H350V10H340V3ZM350 0H357C358.657 0 360 1.34315 360 3V10H350V0ZM400 3C400 1.34315 401.343 0 403 0H407C408.657 0 410 1.34315 410 3V10H400V3ZM420 3C420 1.34315 421.343 0 423 0H430V10H420V3ZM430 0H440V10H430V0ZM440 0H450V10H440V0ZM450 0H460V10H450V0ZM460 0H470V10H460V0ZM470 0H480V10H470V0ZM480 0H487C488.657 0 490 1.34315 490 3V10H480V0ZM0 10H10V20H0V10ZM60 10H70V20H60V10ZM80 13C80 11.3431 81.3431 10 83 10H90V20H83C81.3431 20 80 18.6569 80 17V13ZM90 10H100V20H90V10ZM130 10H140V17C140 18.6569 138.657 20 137 20H130V10ZM160 13C160 11.3431 161.343 10 163 10H170V20H160V13ZM190 10H200V20H190V10ZM200 10H210V20H200V10ZM230 10H240V20H230V10ZM310 10H320V20H310V10ZM320 10H327C328.657 10 330 11.3431 330 13V20H320V10ZM340 10H350V20H340V10ZM350 10H360V20H350V10ZM360 10H367C368.657 10 370 11.3431 370 13V20H360V10ZM380 13C380 11.3431 381.343 10 383 10H390V20H380V13ZM390 10H400V20H390V10ZM400 10H410V20H400V10ZM420 10H430V20H420V10ZM480 10H490V20H480V10ZM0 20H10V30H0V20ZM20 23C20 21.3431 21.3431 20 23 20H30V30H20V23ZM30 20H40V30H30V20ZM40 20H47C48.6569 20 50 21.3431 50 23V30H40V20ZM60 20H70V30H60V20ZM90 20H100V30H90V20ZM100 20H107C108.657 20 110 21.3431 110 23V30H100V20ZM120 23C120 21.3431 121.343 20 123 20H130V30H120V23ZM150 23C150 21.3431 151.343 20 153 20H160V30H150V23ZM160 20H170V30H160V20ZM180 23C180 21.3431 181.343 20 183 20H190V30H180V23ZM190 20H200V30H190V20ZM210 20H220V30H210V20ZM220 20H230V30H220V20ZM230 20H240V30H230V20ZM250 23C250 21.3431 251.343 20 253 20H260V30H250V23ZM260 20H270V30H260V20ZM270 20H277C278.657 20 280 21.3431 280 23V30H270V20ZM290 23C290 21.3431 291.343 20 293 20H300V30H290V23ZM300 20H310V30H300V20ZM320 20H330V30H320V20ZM340 20H350V30H340V20ZM350 20H360V30H350V20ZM370 20H380V27C380 28.6569 378.657 30 377 30H370V20ZM390 20H400V30H390V20ZM400 20H410V27C410 28.6569 408.657 30 407 30H400V20ZM420 20H430V30H420V20ZM440 23C440 21.3431 441.343 20 443 20H450V30H440V23ZM450 20H460V30H450V20ZM460 20H467C468.657 20 470 21.3431 470 23V30H460V20ZM480 20H490V30H480V20ZM0 30H10V40H0V30ZM20 30H30V40H20V30ZM30 30H40V40H30V30ZM40 30H50V40H40V30ZM60 30H70V40H60V30ZM80 33C80 31.3431 81.3431 30 83 30H90V40H80V33ZM100 30H110V40H100V30ZM120 30H130V40H120V30ZM130 30H137C138.657 30 140 31.3431 140 33V40H130V30ZM150 30H160V37C160 38.6569 158.657 40 157 40H150V30ZM170 30H180V40H173C171.343 40 170 38.6569 170 37V30ZM190 30H200V40H190V30ZM210 30H220V40H210V30ZM220 30H230V40H220V30ZM240 30H250V40H240V30ZM250 30H260V40H250V30ZM280 30H290V40H283C281.343 40 280 38.6569 280 37V30ZM290 30H300V40H290V30ZM300 30H310V40H300V30ZM310 30H320V40H310V30ZM320 30H330V40H320V30ZM330 30H340V37C340 38.6569 338.657 40 337 40H330V30ZM350 30H360V40H353C351.343 40 350 38.6569 350 37V30ZM360 30H370V40H360V30ZM390 30H400V37C400 38.6569 398.657 40 397 40H393C391.343 40 390 38.6569 390 37V30ZM420 30H430V40H420V30ZM440 30H450V40H440V30ZM450 30H460V40H450V30ZM460 30H470V40H460V30ZM480 30H490V40H480V30ZM0 40H10V50H0V40ZM20 40H30V50H23C21.3431 50 20 48.6569 20 47V40ZM30 40H40V50H30V40ZM40 40H50V47C50 48.6569 48.6569 50 47 50H40V40ZM60 40H70V50H60V40ZM80 40H90V50H83C81.3431 50 80 48.6569 80 47V40ZM100 40H110V50H100V40ZM110 40H120V50H110V40ZM130 40H140V50H130V40ZM140 40H150V50H140V40ZM180 40H190V50H180V40ZM190 40H200V50H190V40ZM200 40H210V50H200V40ZM220 40H230V50H220V40ZM230 40H240V50H230V40ZM240 40H250V50H240V40ZM250 40H260V50H250V40ZM260 40H267C268.657 40 270 41.3431 270 43V50H260V40ZM290 40H300V50H290V40ZM300 40H310V50H300V40ZM310 40H320V50H310V40ZM370 40H377C378.657 40 380 41.3431 380 43V50H370V40ZM420 40H430V50H420V40ZM440 40H450V50H443C441.343 50 440 48.6569 440 47V40ZM450 40H460V50H450V40ZM460 40H470V47C470 48.6569 468.657 50 467 50H460V40ZM480 40H490V50H480V40ZM0 50H10V60H0V50ZM60 50H70V60H60V50ZM90 50H100V60H90V50ZM100 50H110V60H100V50ZM120 50H130V60H120V50ZM130 50H140V60H130V50ZM150 50H157C158.657 50 160 51.3431 160 53V60H150V50ZM180 50H190V60H180V50ZM190 50H200V60H190V50ZM210 50H220V60H210V50ZM220 50H230V60H220V50ZM260 50H270V60H260V50ZM280 53C280 51.3431 281.343 50 283 50H290V60H280V53ZM310 50H320V60H310V50ZM320 50H327C328.657 50 330 51.3431 330 53V60H320V50ZM360 53C360 51.3431 361.343 50 363 50H370V60H360V53ZM380 50H387C388.657 50 390 51.3431 390 53V60H380V50ZM420 50H430V60H420V50ZM480 50H490V60H480V50ZM0 60H10V70H3C1.34315 70 0 68.6569 0 67V60ZM10 60H20V70H10V60ZM20 60H30V70H20V60ZM30 60H40V70H30V60ZM40 60H50V70H40V60ZM50 60H60V70H50V60ZM60 60H70V67C70 68.6569 68.6569 70 67 70H60V60ZM80 63C80 61.3431 81.3431 60 83 60H90V70H80V63ZM100 60H110V70H100V60ZM120 60H130V70H120V60ZM140 60H150V67C150 68.6569 148.657 70 147 70H140V60ZM160 60H167C168.657 60 170 61.3431 170 63V70H160V60ZM180 60H190V70H180V60ZM200 60H210V70H200V60ZM220 60H230V70H220V60ZM240 63C240 61.3431 241.343 60 243 60H247C248.657 60 250 61.3431 250 63V67C250 68.6569 248.657 70 247 70H243C241.343 70 240 68.6569 240 67V63ZM260 60H270V70H260V60ZM280 60H290V70H283C281.343 70 280 68.6569 280 67V60ZM300 63C300 61.3431 301.343 60 303 60H310V70H300V63ZM320 60H330V70H320V60ZM340 63C340 61.3431 341.343 60 343 60H347C348.657 60 350 61.3431 350 63V67C350 68.6569 348.657 70 347 70H340V63ZM360 60H370V70H360V60ZM380 60H390V67C390 68.6569 388.657 70 387 70H380V60ZM400 63C400 61.3431 401.343 60 403 60H407C408.657 60 410 61.3431 410 63V67C410 68.6569 408.657 70 407 70H403C401.343 70 400 68.6569 400 67V63ZM420 60H430V70H423C421.343 70 420 68.6569 420 67V60ZM430 60H440V70H430V60ZM440 60H450V70H440V60ZM450 60H460V70H450V60ZM460 60H470V70H460V60ZM470 60H480V70H470V60ZM480 60H490V67C490 68.6569 488.657 70 487 70H480V60ZM80 70H90V80H80V70ZM90 70H100V77C100 78.6569 98.6569 80 97 80H90V70ZM110 70H120V80H110V70ZM120 70H130V80H120V70ZM130 70H140V80H130V70ZM160 70H170V77C170 78.6569 168.657 80 167 80H163C161.343 80 160 78.6569 160 77V70ZM180 70H190V80H183C181.343 80 180 78.6569 180 77V70ZM190 70H200V80H190V70ZM200 70H210V80H200V70ZM220 70H230V80H220V70ZM260 70H270V80H260V70ZM290 70H300V80H290V70ZM300 70H310V80H300V70ZM310 70H320V80H310V70ZM320 70H330V80H320V70ZM330 70H340V80H330V70ZM360 70H370V80H360V70ZM370 70H380V80H370V70ZM10 83C10 81.3431 11.3431 80 13 80H17C18.6569 80 20 81.3431 20 83V90H10V83ZM30 83C30 81.3431 31.3431 80 33 80H40V90H30V83ZM40 80H50V90H40V80ZM50 80H60V90H50V80ZM60 80H67C68.6569 80 70 81.3431 70 83V87C70 88.6569 68.6569 90 67 90H60V80ZM80 80H90V90H80V80ZM110 80H120V90H113C111.343 90 110 88.6569 110 87V80ZM140 80H147C148.657 80 150 81.3431 150 83V90H140V80ZM190 80H200V90H190V80ZM200 80H210V90H200V80ZM210 80H220V90H210V80ZM220 80H230V90H220V80ZM230 80H240V90H230V80ZM240 80H250V90H240V80ZM250 80H260V90H250V80ZM260 80H270V90H260V80ZM280 83C280 81.3431 281.343 80 283 80H290V90H280V83ZM290 80H300V90H290V80ZM320 80H330V90H323C321.343 90 320 88.6569 320 87V80ZM340 80H350V90H340V80ZM350 80H360V87C360 88.6569 358.657 90 357 90H350V80ZM370 80H380V90H373C371.343 90 370 88.6569 370 87V80ZM390 83C390 81.3431 391.343 80 393 80H397C398.657 80 400 81.3431 400 83V90H390V83ZM410 83C410 81.3431 411.343 80 413 80H420V90H410V83ZM420 80H427C428.657 80 430 81.3431 430 83V90H420V80ZM440 83C440 81.3431 441.343 80 443 80H450V90H440V83ZM450 80H457C458.657 80 460 81.3431 460 83V90H450V80ZM470 83C470 81.3431 471.343 80 473 80H477C478.657 80 480 81.3431 480 83V90H470V83ZM0 93C0 91.3431 1.34315 90 3 90H10V100H3C1.34315 100 0 98.6569 0 97V93ZM10 90H20V100H10V90ZM20 90H30V100H20V90ZM30 90H40V100H30V90ZM40 90H50V100H40V90ZM50 90H60V100H50V90ZM80 90H90V100H83C81.3431 100 80 98.6569 80 97V90ZM90 90H97C98.6569 90 100 91.3431 100 93V100H90V90ZM120 90H130V100H123C121.343 100 120 98.6569 120 97V90ZM130 90H140V100H130V90ZM140 90H150V100H140V90ZM160 93C160 91.3431 161.343 90 163 90H167C168.657 90 170 91.3431 170 93V100H160V93ZM180 93C180 91.3431 181.343 90 183 90H190V100H180V93ZM200 90H210V100H200V90ZM230 90H240V100H233C231.343 100 230 98.6569 230 97V90ZM240 90H250V100H240V90ZM250 90H260V100H250V90ZM270 90H280V100H270V90ZM280 90H290V100H280V90ZM300 90H307C308.657 90 310 91.3431 310 93V100H303C301.343 100 300 98.6569 300 97V90ZM330 90H340V100H330V90ZM340 90H350V100H340V90ZM380 90H390V97C390 98.6569 388.657 100 387 100H380V90ZM400 90H410V97C410 98.6569 408.657 100 407 100H403C401.343 100 400 98.6569 400 97V90ZM420 90H430V100H423C421.343 100 420 98.6569 420 97V90ZM430 90H440V100H430V90ZM440 90H450V100H440V90ZM450 90H460V100H450V90ZM460 90H470V100H460V90ZM470 90H480V100H470V90ZM20 100H30V110H20V100ZM60 100H67C68.6569 100 70 101.343 70 103V107C70 108.657 68.6569 110 67 110H63C61.3431 110 60 108.657 60 107V100ZM90 100H100V110H93C91.3431 110 90 108.657 90 107V100ZM100 100H107C108.657 100 110 101.343 110 103V110H100V100ZM130 100H140V110H130V100ZM140 100H150V107C150 108.657 148.657 110 147 110H140V100ZM160 100H170V110H160V100ZM180 100H190V110H180V100ZM190 100H200V110H190V100ZM200 100H210V110H200V100ZM250 100H260V110H250V100ZM270 100H280V110H270V100ZM280 100H290V110H280V100ZM310 100H317C318.657 100 320 101.343 320 103V110H310V100ZM330 100H340V110H330V100ZM340 100H350V110H340V100ZM370 103C370 101.343 371.343 100 373 100H380V107C380 108.657 378.657 110 377 110H373C371.343 110 370 108.657 370 107V103ZM430 100H440V110H430V100ZM450 100H460V110H450V100ZM470 100H480V110H470V100ZM480 100H487C488.657 100 490 101.343 490 103V107C490 108.657 488.657 110 487 110H480V100ZM0 113C0 111.343 1.34315 110 3 110H7C8.65685 110 10 111.343 10 113V117C10 118.657 8.65685 120 7 120H3C1.34315 120 0 118.657 0 117V113ZM20 110H30V120H20V110ZM100 110H110V120H100V110ZM110 110H117C118.657 110 120 111.343 120 113V120H110V110ZM130 110H140V120H130V110ZM160 110H170V120H160V110ZM170 110H180V120H170V110ZM180 110H190V120H180V110ZM210 110H217C218.657 110 220 111.343 220 113V117C220 118.657 218.657 120 217 120H213C211.343 120 210 118.657 210 117V110ZM250 110H260V120H250V110ZM270 110H280V120H270V110ZM290 110H300V120H290V110ZM300 110H310V120H300V110ZM310 110H320V120H310V110ZM320 110H330V120H320V110ZM340 110H350V120H340V110ZM350 110H357C358.657 110 360 111.343 360 113V120H350V110ZM390 113C390 111.343 391.343 110 393 110H400V120H390V113ZM400 110H410V120H400V110ZM410 110H420V120H410V110ZM420 110H430V120H420V110ZM430 110H440V120H430V110ZM440 110H450V120H440V110ZM450 110H460V120H450V110ZM460 110H470V120H460V110ZM20 120H30V130H20V120ZM30 120H37C38.6569 120 40 121.343 40 123V130H30V120ZM60 123C60 121.343 61.3431 120 63 120H67C68.6569 120 70 121.343 70 123V127C70 128.657 68.6569 130 67 130H60V123ZM80 123C80 121.343 81.3431 120 83 120H90V130H83C81.3431 130 80 128.657 80 127V123ZM90 120H100V130H90V120ZM100 120H110V130H100V120ZM110 120H120V130H110V120ZM120 120H130V130H120V120ZM140 120H147C148.657 120 150 121.343 150 123V127C150 128.657 148.657 130 147 130H140V120ZM160 120H170V130H163C161.343 130 160 128.657 160 127V120ZM170 120H180V130H170V120ZM190 120H197C198.657 120 200 121.343 200 123V127C200 128.657 198.657 130 197 130H190V120ZM230 123C230 121.343 231.343 120 233 120H237C238.657 120 240 121.343 240 123V130H230V123ZM250 120H260V130H250V120ZM260 120H270V130H260V120ZM270 120H280V130H270V120ZM280 120H290V130H280V120ZM290 120H300V130H290V120ZM320 120H330V130H320V120ZM340 120H350V127C350 128.657 348.657 130 347 130H340V120ZM360 120H370V130H360V120ZM370 120H377C378.657 120 380 121.343 380 123V130H370V120ZM390 120H400V127C400 128.657 398.657 130 397 130H390V120ZM420 120H430V130H420V120ZM440 120H450V130H440V120ZM450 120H460V127C460 128.657 458.657 130 457 130H450V120ZM470 120H480V130H470V120ZM480 120H487C488.657 120 490 121.343 490 123V127C490 128.657 488.657 130 487 130H480V120ZM10 133C10 131.343 11.3431 130 13 130H20V140H10V133ZM30 130H40V137C40 138.657 38.6569 140 37 140H30V130ZM50 133C50 131.343 51.3431 130 53 130H60V140H53C51.3431 140 50 138.657 50 137V133ZM90 130H100V140H90V130ZM110 130H120V140H110V130ZM120 130H130V140H120V130ZM130 130H140V137C140 138.657 138.657 140 137 140H130V130ZM170 130H180V140H170V130ZM180 130H190V140H180V130ZM220 133C220 131.343 221.343 130 223 130H230V140H220V133ZM240 130H250V140H240V130ZM250 130H260V140H250V130ZM260 130H270V140H260V130ZM270 130H280V137C280 138.657 278.657 140 277 140H270V130ZM290 130H300V140H290V130ZM300 130H307C308.657 130 310 131.343 310 133V137C310 138.657 308.657 140 307 140H300V130ZM320 130H330V140H320V130ZM330 130H340V140H330V130ZM360 130H370V140H360V130ZM370 130H380V140H370V130ZM380 130H390V140H380V130ZM410 133C410 131.343 411.343 130 413 130H420V140H413C411.343 140 410 138.657 410 137V133ZM420 130H430V140H420V130ZM440 130H450V137C450 138.657 448.657 140 447 140H440V130ZM470 130H480V140H470V130ZM10 140H20V150H10V140ZM20 140H30V147C30 148.657 28.6569 150 27 150H20V140ZM60 140H70V150H63C61.3431 150 60 148.657 60 147V140ZM70 140H80V150H70V140ZM80 140H90V150H80V140ZM90 140H100V150H90V140ZM100 140H110V150H100V140ZM170 140H180V150H170V140ZM190 140H197C198.657 140 200 141.343 200 143V147C200 148.657 198.657 150 197 150H190V140ZM210 143C210 141.343 211.343 140 213 140H220V150H210V143ZM220 140H230V150H220V140ZM230 140H240V150H230V140ZM240 140H250V147C250 148.657 248.657 150 247 150H240V140ZM290 140H300V150H290V140ZM320 140H330V150H320V140ZM330 140H340V150H330V140ZM350 143C350 141.343 351.343 140 353 140H360V150H350V143ZM380 140H390V150H380V140ZM390 140H397C398.657 140 400 141.343 400 143V147C400 148.657 398.657 150 397 150H390V140ZM430 140H440V147C440 148.657 438.657 150 437 150H433C431.343 150 430 148.657 430 147V140ZM460 143C460 141.343 461.343 140 463 140H470V150H460V143ZM470 140H480V150H470V140ZM480 140H487C488.657 140 490 141.343 490 143V147C490 148.657 488.657 150 487 150H480V140ZM10 150H20V160H10V150ZM90 150H100V160H90V150ZM100 150H110V160H100V150ZM120 153C120 151.343 121.343 150 123 150H127C128.657 150 130 151.343 130 153V157C130 158.657 128.657 160 127 160H123C121.343 160 120 158.657 120 157V153ZM150 153C150 151.343 151.343 150 153 150H160V160H150V153ZM160 150H170V160H160V150ZM170 150H180V160H170V150ZM180 150H190V160H180V150ZM210 150H220V157C220 158.657 218.657 160 217 160H210V150ZM260 153C260 151.343 261.343 150 263 150H267C268.657 150 270 151.343 270 153V160H260V153ZM280 153C280 151.343 281.343 150 283 150H290V160H280V153ZM300 150H310V160H300V150ZM310 150H320V160H310V150ZM340 150H350V160H343C341.343 160 340 158.657 340 157V150ZM350 150H360V160H350V150ZM380 150H390V160H380V150ZM410 153C410 151.343 411.343 150 413 150H417C418.657 150 420 151.343 420 153V160H410V153ZM460 150H470V160H463C461.343 160 460 158.657 460 157V150ZM470 150H480V157C480 158.657 478.657 160 477 160H470V150ZM0 163C0 161.343 1.34315 160 3 160H10V170H3C1.34315 170 0 168.657 0 167V163ZM20 160H27C28.6569 160 30 161.343 30 163V170H20V160ZM60 163C60 161.343 61.3431 160 63 160H70V170H63C61.3431 170 60 168.657 60 167V163ZM70 160H80V170H70V160ZM80 160H90V170H80V160ZM90 160H100V170H90V160ZM100 160H110V167C110 168.657 108.657 170 107 170H100V160ZM140 163C140 161.343 141.343 160 143 160H150V170H140V163ZM160 160H170V170H160V160ZM190 160H200V170H190V160ZM200 160H210V170H200V160ZM230 163C230 161.343 231.343 160 233 160H237C238.657 160 240 161.343 240 163V170H230V163ZM260 160H270V170H260V160ZM280 160H290V170H280V160ZM300 160H310V170H300V160ZM320 160H327C328.657 160 330 161.343 330 163V167C330 168.657 328.657 170 327 170H320V160ZM350 160H360V170H350V160ZM360 160H370V170H360V160ZM370 160H380V170H370V160ZM380 160H390V170H380V160ZM390 160H397C398.657 160 400 161.343 400 163V170H390V160ZM410 160H420V167C420 168.657 418.657 170 417 170H413C411.343 170 410 168.657 410 167V160ZM440 163C440 161.343 441.343 160 443 160H447C448.657 160 450 161.343 450 163V167C450 168.657 448.657 170 447 170H440V163ZM10 170H20V180H10V170ZM30 170H40V180H30V170ZM40 170H47C48.6569 170 50 171.343 50 173V180H40V170ZM90 170H100V177C100 178.657 98.6569 180 97 180H93C91.3431 180 90 178.657 90 177V170ZM120 173C120 171.343 121.343 170 123 170H127C128.657 170 130 171.343 130 173V177C130 178.657 128.657 180 127 180H120V173ZM140 170H150V177C150 178.657 148.657 180 147 180H143C141.343 180 140 178.657 140 177V170ZM160 170H170V180H160V170ZM170 170H180V180H170V170ZM180 170H190V180H180V170ZM190 170H200V180H190V170ZM200 170H210V180H200V170ZM210 170H217C218.657 170 220 171.343 220 173V180H210V170ZM230 170H240V180H230V170ZM250 173C250 171.343 251.343 170 253 170H260V180H250V173ZM270 170H280V180H273C271.343 180 270 178.657 270 177V170ZM280 170H290V180H280V170ZM290 170H300V180H290V170ZM300 170H310V180H300V170ZM310 170H320V177C320 178.657 318.657 180 317 180H310V170ZM340 173C340 171.343 341.343 170 343 170H350V180H340V173ZM350 170H360V180H350V170ZM390 170H400V180H390V170ZM430 173C430 171.343 431.343 170 433 170H440V180H430V173ZM0 183C0 181.343 1.34315 180 3 180H10V190H3C1.34315 190 0 188.657 0 187V183ZM10 180H20V190H10V180ZM20 180H30V190H20V180ZM50 180H60V190H53C51.3431 190 50 188.657 50 187V180ZM60 180H70V190H60V180ZM70 180H77C78.6569 180 80 181.343 80 183V190H70V180ZM110 183C110 181.343 111.343 180 113 180H120V190H110V183ZM160 180H170V190H163C161.343 190 160 188.657 160 187V180ZM170 180H180V190H170V180ZM190 180H200V190H190V180ZM200 180H210V187C210 188.657 208.657 190 207 190H200V180ZM220 180H230V190H220V180ZM240 180H250V190H240V180ZM250 180H260V190H250V180ZM280 180H290V187C290 188.657 288.657 190 287 190H283C281.343 190 280 188.657 280 187V180ZM300 180H310V190H300V180ZM340 180H350V190H340V180ZM350 180H360V190H350V180ZM360 180H367C368.657 180 370 181.343 370 183V187C370 188.657 368.657 190 367 190H360V180ZM380 183C380 181.343 381.343 180 383 180H390V190H383C381.343 190 380 188.657 380 187V183ZM390 180H400V190H390V180ZM410 183C410 181.343 411.343 180 413 180H420V190H410V183ZM420 180H430V190H420V180ZM430 180H440V187C440 188.657 438.657 190 437 190H430V180ZM450 183C450 181.343 451.343 180 453 180H460V190H450V183ZM460 180H467C468.657 180 470 181.343 470 183V187C470 188.657 468.657 190 467 190H460V180ZM480 183C480 181.343 481.343 180 483 180H487C488.657 180 490 181.343 490 183V190H480V183ZM20 190H30V197C30 198.657 28.6569 200 27 200H23C21.3431 200 20 198.657 20 197V190ZM70 190H80V200H70V190ZM110 190H120V200H113C111.343 200 110 198.657 110 197V190ZM120 190H127C128.657 190 130 191.343 130 193V200H120V190ZM180 190H190V200H183C181.343 200 180 198.657 180 197V190ZM190 190H200V200H190V190ZM220 190H230V200H220V190ZM240 190H250V200H240V190ZM250 190H260V200H250V190ZM300 190H310V200H300V190ZM310 190H317C318.657 190 320 191.343 320 193V197C320 198.657 318.657 200 317 200H310V190ZM330 193C330 191.343 331.343 190 333 190H340V197C340 198.657 338.657 200 337 200H333C331.343 200 330 198.657 330 197V193ZM350 190H360V200H353C351.343 200 350 198.657 350 197V190ZM390 190H400V200H390V190ZM400 190H410V197C410 198.657 408.657 200 407 200H400V190ZM420 190H430V200H420V190ZM450 190H460V197C460 198.657 458.657 200 457 200H453C451.343 200 450 198.657 450 197V190ZM480 190H490V197C490 198.657 488.657 200 487 200H480V190ZM0 203C0 201.343 1.34315 200 3 200H7C8.65685 200 10 201.343 10 203V207C10 208.657 8.65685 210 7 210H3C1.34315 210 0 208.657 0 207V203ZM60 203C60 201.343 61.3431 200 63 200H70V210H60V203ZM70 200H80V210H70V200ZM80 200H90V210H80V200ZM90 200H97C98.6569 200 100 201.343 100 203V210H90V200ZM120 200H130V210H123C121.343 210 120 208.657 120 207V200ZM160 203C160 201.343 161.343 200 163 200H167C168.657 200 170 201.343 170 203V207C170 208.657 168.657 210 167 210H163C161.343 210 160 208.657 160 207V203ZM190 200H200V210H193C191.343 210 190 208.657 190 207V200ZM220 200H230V210H220V200ZM240 200H250V210H240V200ZM260 200H267C268.657 200 270 201.343 270 203V210H260V200ZM280 203C280 201.343 281.343 200 283 200H290V210H283C281.343 210 280 208.657 280 207V203ZM290 200H300V210H290V200ZM360 200H367C368.657 200 370 201.343 370 203V207C370 208.657 368.657 210 367 210H363C361.343 210 360 208.657 360 207V200ZM380 203C380 201.343 381.343 200 383 200H390V210H380V203ZM390 200H400V210H390V200ZM420 200H430V210H420V200ZM470 203C470 201.343 471.343 200 473 200H480V207C480 208.657 478.657 210 477 210H470V203ZM20 213C20 211.343 21.3431 210 23 210H27C28.6569 210 30 211.343 30 213V220H20V213ZM50 213C50 211.343 51.3431 210 53 210H60V220H50V213ZM70 210H80V220H70V210ZM80 210H90V220H80V210ZM90 210H100V220H90V210ZM100 210H107C108.657 210 110 211.343 110 213V220H100V210ZM130 210H140V220H130V210ZM140 210H147C148.657 210 150 211.343 150 213V220H140V210ZM200 210H210V220H203C201.343 220 200 218.657 200 217V210ZM210 210H220V220H210V210ZM230 210H240V220H230V210ZM240 210H250V220H240V210ZM260 210H270V220H260V210ZM290 210H300V220H290V210ZM300 210H307C308.657 210 310 211.343 310 213V217C310 218.657 308.657 220 307 220H300V210ZM340 213C340 211.343 341.343 210 343 210H347C348.657 210 350 211.343 350 213V220H340V213ZM380 210H390V220H383C381.343 220 380 218.657 380 217V210ZM390 210H400V220H390V210ZM400 210H410V220H400V210ZM410 210H420V220H410V210ZM420 210H430V220H420V210ZM440 213C440 211.343 441.343 210 443 210H450V220H440V213ZM450 210H460V220H450V210ZM460 210H470V217C470 218.657 468.657 220 467 220H460V210ZM0 223C0 221.343 1.34315 220 3 220H7C8.65685 220 10 221.343 10 223V227C10 228.657 8.65685 230 7 230H3C1.34315 230 0 228.657 0 227V223ZM20 220H30V230H20V220ZM30 220H40V230H30V220ZM40 220H50V230H40V220ZM50 220H60V230H50V220ZM60 220H70V230H60V220ZM70 220H80V230H70V220ZM80 220H90V230H80V220ZM90 220H100V230H90V220ZM100 220H110V227C110 228.657 108.657 230 107 230H100V220ZM120 223C120 221.343 121.343 220 123 220H130V230H120V223ZM150 220H160V230H153C151.343 230 150 228.657 150 227V220ZM160 220H170V230H160V220ZM170 220H177C178.657 220 180 221.343 180 223V230H170V220ZM210 220H220V230H210V220ZM220 220H230V230H220V220ZM230 220H240V230H230V220ZM240 220H250V230H240V220ZM250 220H260V230H250V220ZM260 220H270V230H260V220ZM280 223C280 221.343 281.343 220 283 220H290V230H280V223ZM320 223C320 221.343 321.343 220 323 220H330V230H320V223ZM330 220H340V230H330V220ZM340 220H350V227C350 228.657 348.657 230 347 230H340V220ZM360 223C360 221.343 361.343 220 363 220H367C368.657 220 370 221.343 370 223V230H363C361.343 230 360 228.657 360 227V223ZM400 220H410V230H400V220ZM410 220H420V230H410V220ZM420 220H430V230H420V220ZM430 220H440V230H430V220ZM440 220H450V230H440V220ZM480 223C480 221.343 481.343 220 483 220H487C488.657 220 490 221.343 490 223V227C490 228.657 488.657 230 487 230H483C481.343 230 480 228.657 480 227V223ZM20 230H30V240H20V230ZM30 230H40V240H30V230ZM40 230H50V240H40V230ZM80 230H90V240H80V230ZM120 230H130V240H120V230ZM180 230H190V240H180V230ZM190 230H200V240H190V230ZM200 230H210V237C210 238.657 208.657 240 207 240H200V230ZM220 230H230V240H220V230ZM260 230H270V240H260V230ZM280 230H290V237C290 238.657 288.657 240 287 240H283C281.343 240 280 238.657 280 237V230ZM300 233C300 231.343 301.343 230 303 230H307C308.657 230 310 231.343 310 233V240H300V233ZM320 230H330V240H320V230ZM370 230H380V240H370V230ZM380 230H390V240H380V230ZM390 230H400V240H390V230ZM400 230H410V240H400V230ZM440 230H450V240H440V230ZM450 230H460V240H450V230ZM460 230H467C468.657 230 470 231.343 470 233V237C470 238.657 468.657 240 467 240H460V230ZM20 240H30V250H23C21.3431 250 20 248.657 20 247V240ZM30 240H40V250H30V240ZM40 240H50V250H40V240ZM60 243C60 241.343 61.3431 240 63 240H67C68.6569 240 70 241.343 70 243V247C70 248.657 68.6569 250 67 250H63C61.3431 250 60 248.657 60 247V243ZM80 240H90V250H80V240ZM100 243C100 241.343 101.343 240 103 240H110V250H100V243ZM110 240H120V250H110V240ZM120 240H130V250H120V240ZM130 240H137C138.657 240 140 241.343 140 243V250H130V240ZM150 243C150 241.343 151.343 240 153 240H157C158.657 240 160 241.343 160 243V250H150V243ZM170 243C170 241.343 171.343 240 173 240H180V250H170V243ZM220 240H230V250H220V240ZM240 243C240 241.343 241.343 240 243 240H247C248.657 240 250 241.343 250 243V247C250 248.657 248.657 250 247 250H243C241.343 250 240 248.657 240 247V243ZM260 240H270V250H260V240ZM300 240H310V250H300V240ZM320 240H330V250H320V240ZM340 243C340 241.343 341.343 240 343 240H347C348.657 240 350 241.343 350 243V250H340V243ZM360 243C360 241.343 361.343 240 363 240H370V247C370 248.657 368.657 250 367 250H360V243ZM390 240H400V250H390V240ZM400 240H410V250H400V240ZM420 243C420 241.343 421.343 240 423 240H427C428.657 240 430 241.343 430 243V247C430 248.657 428.657 250 427 250H423C421.343 250 420 248.657 420 247V243ZM440 240H450V250H440V240ZM450 240H460V247C460 248.657 458.657 250 457 250H450V240ZM480 243C480 241.343 481.343 240 483 240H487C488.657 240 490 241.343 490 243V250H480V243ZM40 250H50V260H40V250ZM80 250H90V260H80V250ZM100 250H110V260H100V250ZM140 250H150V260H140V250ZM150 250H160V260H150V250ZM160 250H170V257C170 258.657 168.657 260 167 260H160V250ZM180 250H187C188.657 250 190 251.343 190 253V260H180V250ZM210 253C210 251.343 211.343 250 213 250H220V260H210V253ZM220 250H230V260H220V250ZM260 250H270V260H260V250ZM280 253C280 251.343 281.343 250 283 250H290V260H283C281.343 260 280 258.657 280 257V253ZM290 250H300V260H290V250ZM300 250H310V257C310 258.657 308.657 260 307 260H300V250ZM320 250H330V260H320V250ZM330 250H340V260H330V250ZM350 250H360V260H350V250ZM380 253C380 251.343 381.343 250 383 250H390V260H380V253ZM400 250H410V260H400V250ZM440 250H450V260H440V250ZM480 250H490V257C490 258.657 488.657 260 487 260H480V250ZM10 263C10 261.343 11.3431 260 13 260H17C18.6569 260 20 261.343 20 263V270H10V263ZM30 263C30 261.343 31.3431 260 33 260H40V270H30V263ZM40 260H50V270H40V260ZM50 260H60V270H50V260ZM60 260H70V270H60V260ZM70 260H80V270H70V260ZM80 260H90V267C90 268.657 88.6569 270 87 270H80V260ZM100 260H110V270H100V260ZM110 260H117C118.657 260 120 261.343 120 263V270H110V260ZM130 263C130 261.343 131.343 260 133 260H140V270H130V263ZM140 260H150V270H140V260ZM180 260H190V270H180V260ZM200 263C200 261.343 201.343 260 203 260H210V270H200V263ZM220 260H230V270H220V260ZM230 260H240V270H230V260ZM240 260H250V270H240V260ZM250 260H260V270H250V260ZM260 260H270V270H260V260ZM290 260H300V267C300 268.657 298.657 270 297 270H290V260ZM320 260H330V270H323C321.343 270 320 268.657 320 267V260ZM330 260H340V270H330V260ZM350 260H360V270H350V260ZM370 263C370 261.343 371.343 260 373 260H380V270H370V263ZM380 260H390V270H380V260ZM400 260H410V270H400V260ZM410 260H420V270H410V260ZM420 260H430V270H420V260ZM430 260H440V270H430V260ZM440 260H450V270H440V260ZM470 263C470 261.343 471.343 260 473 260H480V267C480 268.657 478.657 270 477 270H470V263ZM0 273C0 271.343 1.34315 270 3 270H10V280H0V273ZM10 270H20V280H10V270ZM30 270H40V280H30V270ZM40 270H50V280H40V270ZM50 270H60V280H50V270ZM100 270H110V280H100V270ZM120 270H130V277C130 278.657 128.657 280 127 280H120V270ZM140 270H150V280H140V270ZM150 270H160V280H150V270ZM160 270H170V280H160V270ZM170 270H180V280H170V270ZM190 270H200V280H190V270ZM200 270H210V280H200V270ZM210 270H220V280H210V270ZM220 270H230V280H220V270ZM240 270H250V280H240V270ZM250 270H260V280H250V270ZM270 270H280V280H270V270ZM280 270H290V277C290 278.657 288.657 280 287 280H280V270ZM340 270H350V280H340V270ZM350 270H360V280H350V270ZM370 270H380V280H370V270ZM390 270H400V280H390V270ZM400 270H410V280H400V270ZM410 270H420V277C420 278.657 418.657 280 417 280H410V270ZM430 270H440V280H430V270ZM440 270H450V280H440V270ZM450 270H460V280H450V270ZM460 270H470V280H460V270ZM0 280H10V290H3C1.34315 290 0 288.657 0 287V280ZM10 280H20V290H10V280ZM20 280H30V290H20V280ZM30 280H40V287C40 288.657 38.6569 290 37 290H30V280ZM60 280H67C68.6569 280 70 281.343 70 283V290H63C61.3431 290 60 288.657 60 287V280ZM80 283C80 281.343 81.3431 280 83 280H87C88.6569 280 90 281.343 90 283V290H80V283ZM100 280H110V290H100V280ZM110 280H120V287C120 288.657 118.657 290 117 290H110V280ZM140 280H150V290H140V280ZM160 280H170V290H160V280ZM170 280H180V290H170V280ZM190 280H200V290H190V280ZM210 280H220V290H210V280ZM230 280H240V290H230V280ZM240 280H250V290H240V280ZM260 280H270V290H260V280ZM270 280H280V290H270V280ZM300 283C300 281.343 301.343 280 303 280H310V290H300V283ZM310 280H320V290H310V280ZM320 280H327C328.657 280 330 281.343 330 283V290H320V280ZM340 280H350V290H340V280ZM360 280H370V290H363C361.343 290 360 288.657 360 287V280ZM370 280H380V287C380 288.657 378.657 290 377 290H370V280ZM390 280H400V290H390V280ZM430 280H440V290H433C431.343 290 430 288.657 430 287V280ZM440 280H450V287C450 288.657 448.657 290 447 290H440V280ZM460 280H470V290H460V280ZM70 290H80V300H70V290ZM80 290H90V300H80V290ZM100 290H110V300H100V290ZM140 290H150V300H143C141.343 300 140 298.657 140 297V290ZM160 290H170V300H160V290ZM180 290H190V300H180V290ZM190 290H200V300H190V290ZM200 290H210V300H200V290ZM210 290H220V300H210V290ZM220 290H230V300H220V290ZM240 290H250V300H240V290ZM250 290H260V300H250V290ZM270 290H280V300H270V290ZM280 290H290V300H280V290ZM290 290H300V300H290V290ZM300 290H310V300H300V290ZM310 290H320V300H310V290ZM320 290H330V300H320V290ZM340 290H350V297C350 298.657 348.657 300 347 300H343C341.343 300 340 298.657 340 297V290ZM390 290H400V300H390V290ZM400 290H410V300H400V290ZM410 290H417C418.657 290 420 291.343 420 293V300H410V290ZM460 290H470V300H460V290ZM470 290H477C478.657 290 480 291.343 480 293V300H470V290ZM0 303C0 301.343 1.34315 300 3 300H7C8.65685 300 10 301.343 10 303V307C10 308.657 8.65685 310 7 310H3C1.34315 310 0 308.657 0 307V303ZM20 303C20 301.343 21.3431 300 23 300H30V310H20V303ZM30 300H37C38.6569 300 40 301.343 40 303V310H30V300ZM60 303C60 301.343 61.3431 300 63 300H70V310H60V303ZM70 300H80V307C80 308.657 78.6569 310 77 310H70V300ZM90 300H100V310H90V300ZM100 300H110V310H100V300ZM110 300H117C118.657 300 120 301.343 120 303V307C120 308.657 118.657 310 117 310H110V300ZM150 300H160V310H150V300ZM170 300H180V310H173C171.343 310 170 308.657 170 307V300ZM190 300H200V310H190V300ZM210 300H220V310H210V300ZM220 300H230V310H220V300ZM230 300H240V307C240 308.657 238.657 310 237 310H230V300ZM250 300H260V310H253C251.343 310 250 308.657 250 307V300ZM260 300H270V310H260V300ZM270 300H280V310H270V300ZM280 300H290V310H280V300ZM290 300H300V307C300 308.657 298.657 310 297 310H290V300ZM320 300H330V310H320V300ZM360 303C360 301.343 361.343 300 363 300H367C368.657 300 370 301.343 370 303V310H360V303ZM390 300H400V310H390V300ZM420 300H427C428.657 300 430 301.343 430 303V310H420V300ZM440 303C440 301.343 441.343 300 443 300H447C448.657 300 450 301.343 450 303V310H440V303ZM460 300H470V307C470 308.657 468.657 310 467 310H463C461.343 310 460 308.657 460 307V300ZM480 300H487C488.657 300 490 301.343 490 303V310H480V300ZM20 310H30V317C30 318.657 28.6569 320 27 320H20V310ZM40 310H50V320H43C41.3431 320 40 318.657 40 317V310ZM50 310H60V320H50V310ZM90 310H100V317C100 318.657 98.6569 320 97 320H90V310ZM150 310H160V317C160 318.657 158.657 320 157 320H153C151.343 320 150 318.657 150 317V310ZM180 310H190V320H180V310ZM190 310H200V320H190V310ZM200 310H210V317C210 318.657 208.657 320 207 320H200V310ZM220 310H230V320H220V310ZM270 310H280V320H270V310ZM320 310H330V320H320V310ZM330 310H337C338.657 310 340 311.343 340 313V320H330V310ZM350 313C350 311.343 351.343 310 353 310H360V320H353C351.343 320 350 318.657 350 317V313ZM360 310H370V320H360V310ZM370 310H380V320H370V310ZM380 310H390V320H380V310ZM390 310H400V320H390V310ZM400 310H410V320H400V310ZM410 310H420V320H410V310ZM430 310H440V320H430V310ZM440 310H450V320H440V310ZM480 310H490V320H480V310ZM0 323C0 321.343 1.34315 320 3 320H10V330H3C1.34315 330 0 328.657 0 327V323ZM10 320H20V330H10V320ZM50 320H60V330H50V320ZM60 320H70V330H60V320ZM70 320H80V330H70V320ZM80 320H90V330H80V320ZM170 323C170 321.343 171.343 320 173 320H180V330H170V323ZM180 320H190V330H180V320ZM220 320H230V330H220V320ZM230 320H237C238.657 320 240 321.343 240 323V330H230V320ZM250 323C250 321.343 251.343 320 253 320H257C258.657 320 260 321.343 260 323V330H250V323ZM270 320H280V330H270V320ZM280 320H290V330H280V320ZM290 320H300V330H290V320ZM300 320H310V330H300V320ZM310 320H320V330H310V320ZM330 320H340V330H330V320ZM360 320H370V330H360V320ZM370 320H380V330H370V320ZM380 320H390V330H380V320ZM390 320H400V327C400 328.657 398.657 330 397 330H390V320ZM410 320H420V330H413C411.343 330 410 328.657 410 327V320ZM420 320H430V330H420V320ZM440 320H450V330H440V320ZM480 320H490V327C490 328.657 488.657 330 487 330H483C481.343 330 480 328.657 480 327V320ZM10 330H20V340H10V330ZM20 330H27C28.6569 330 30 331.343 30 333V340H20V330ZM40 333C40 331.343 41.3431 330 43 330H50V340H40V333ZM70 330H80V340H70V330ZM80 330H90V337C90 338.657 88.6569 340 87 340H80V330ZM100 333C100 331.343 101.343 330 103 330H107C108.657 330 110 331.343 110 333V340H103C101.343 340 100 338.657 100 337V333ZM120 333C120 331.343 121.343 330 123 330H130V340H120V333ZM130 330H137C138.657 330 140 331.343 140 333V337C140 338.657 138.657 340 137 340H130V330ZM150 333C150 331.343 151.343 330 153 330H160V340H150V333ZM160 330H170V340H160V330ZM180 330H190V340H180V330ZM200 333C200 331.343 201.343 330 203 330H210V340H200V333ZM210 330H220V337C220 338.657 218.657 340 217 340H210V330ZM230 330H240V340H233C231.343 340 230 338.657 230 337V330ZM250 330H260V340H250V330ZM270 330H280V340H270V330ZM280 330H290V340H280V330ZM290 330H300V340H290V330ZM300 330H310V340H300V330ZM310 330H320V340H310V330ZM320 330H330V340H320V330ZM340 330H350V340H340V330ZM350 330H360V340H350V330ZM360 330H370V340H360V330ZM380 330H390V340H383C381.343 340 380 338.657 380 337V330ZM420 330H430V340H420V330ZM440 330H450V340H440V330ZM450 330H460V340H450V330ZM460 330H467C468.657 330 470 331.343 470 333V340H460V330ZM0 343C0 341.343 1.34315 340 3 340H10V350H0V343ZM10 340H20V347C20 348.657 18.6569 350 17 350H10V340ZM30 340H40V350H30V340ZM40 340H50V350H40V340ZM50 340H60V350H50V340ZM60 340H70V347C70 348.657 68.6569 350 67 350H60V340ZM110 340H120V350H110V340ZM120 340H130V347C130 348.657 128.657 350 127 350H120V340ZM150 340H160V350H150V340ZM170 340H180V350H170V340ZM180 340H190V350H180V340ZM200 340H210V350H200V340ZM240 340H250V350H243C241.343 350 240 348.657 240 347V340ZM250 340H260V350H250V340ZM260 340H270V350H260V340ZM270 340H280V350H270V340ZM290 340H300V350H290V340ZM320 340H330V350H320V340ZM340 340H350V350H340V340ZM350 340H360V350H350V340ZM360 340H370V350H360V340ZM390 340H400V350H390V340ZM400 340H407C408.657 340 410 341.343 410 343V347C410 348.657 408.657 350 407 350H400V340ZM420 340H430V347C430 348.657 428.657 350 427 350H423C421.343 350 420 348.657 420 347V340ZM440 340H450V350H443C441.343 350 440 348.657 440 347V340ZM450 340H460V350H450V340ZM460 340H470V350H460V340ZM480 343C480 341.343 481.343 340 483 340H487C488.657 340 490 341.343 490 343V347C490 348.657 488.657 350 487 350H480V343ZM0 350H10V357C10 358.657 8.65685 360 7 360H3C1.34315 360 0 358.657 0 357V350ZM30 350H40V360H30V350ZM50 350H60V360H50V350ZM80 353C80 351.343 81.3431 350 83 350H87C88.6569 350 90 351.343 90 353V360H80V353ZM100 353C100 351.343 101.343 350 103 350H110V360H100V353ZM110 350H120V360H110V350ZM140 353C140 351.343 141.343 350 143 350H150V357C150 358.657 148.657 360 147 360H140V353ZM160 350H170V360H160V350ZM170 350H180V360H170V350ZM180 350H190V360H180V350ZM200 350H210V360H200V350ZM250 350H260V360H250V350ZM280 350H290V357C290 358.657 288.657 360 287 360H283C281.343 360 280 358.657 280 357V350ZM300 350H310V360H300V350ZM310 350H320V360H310V350ZM320 350H330V360H320V350ZM330 350H340V360H330V350ZM350 350H360V360H353C351.343 360 350 358.657 350 357V350ZM370 350H377C378.657 350 380 351.343 380 353V360H370V350ZM390 350H400V360H390V350ZM460 350H470V360H463C461.343 360 460 358.657 460 357V350ZM470 350H480V360H470V350ZM20 363C20 361.343 21.3431 360 23 360H30V370H23C21.3431 370 20 368.657 20 367V363ZM30 360H40V370H30V360ZM40 360H50V370H40V360ZM50 360H60V370H50V360ZM60 360H67C68.6569 360 70 361.343 70 363V367C70 368.657 68.6569 370 67 370H60V360ZM80 360H90V370H83C81.3431 370 80 368.657 80 367V360ZM90 360H100V370H90V360ZM100 360H110V370H100V360ZM110 360H120V370H110V360ZM120 360H130V370H120V360ZM130 360H140V370H130V360ZM160 360H170V370H160V360ZM170 360H180V370H170V360ZM180 360H190V370H180V360ZM190 360H200V370H190V360ZM200 360H210V370H200V360ZM210 360H217C218.657 360 220 361.343 220 363V370H210V360ZM230 363C230 361.343 231.343 360 233 360H240V370H230V363ZM240 360H250V370H240V360ZM250 360H260V370H250V360ZM260 360H267C268.657 360 270 361.343 270 363V367C270 368.657 268.657 370 267 370H260V360ZM300 360H310V370H300V360ZM310 360H320V370H310V360ZM320 360H330V370H320V360ZM330 360H340V370H330V360ZM360 360H370V370H360V360ZM370 360H380V370H370V360ZM390 360H400V370H390V360ZM400 360H407C408.657 360 410 361.343 410 363V367C410 368.657 408.657 370 407 370H400V360ZM420 363C420 361.343 421.343 360 423 360H430V370H420V363ZM430 360H437C438.657 360 440 361.343 440 363V370H430V360ZM480 360H487C488.657 360 490 361.343 490 363V367C490 368.657 488.657 370 487 370H483C481.343 370 480 368.657 480 367V360ZM0 373C0 371.343 1.34315 370 3 370H7C8.65685 370 10 371.343 10 373V380H3C1.34315 380 0 378.657 0 377V373ZM30 370H40V380H33C31.3431 380 30 378.657 30 377V370ZM40 370H50V380H40V370ZM50 370H60V380H50V370ZM90 370H100V380H90V370ZM130 370H140V380H130V370ZM140 370H147C148.657 370 150 371.343 150 373V380H140V370ZM160 370H170V380H160V370ZM170 370H180V380H170V370ZM200 370H210V377C210 378.657 208.657 380 207 380H203C201.343 380 200 378.657 200 377V370ZM220 370H230V377C230 378.657 228.657 380 227 380H223C221.343 380 220 378.657 220 377V370ZM240 370H250V380H240V370ZM280 373C280 371.343 281.343 370 283 370H287C288.657 370 290 371.343 290 373V377C290 378.657 288.657 380 287 380H283C281.343 380 280 378.657 280 377V373ZM300 370H310V380H300V370ZM330 370H340V380H330V370ZM350 373C350 371.343 351.343 370 353 370H360V380H350V373ZM370 370H380V380H373C371.343 380 370 378.657 370 377V370ZM380 370H390V380H380V370ZM390 370H400V380H390V370ZM420 370H430V380H420V370ZM430 370H440V380H430V370ZM440 370H450V380H440V370ZM450 370H460V380H450V370ZM460 370H467C468.657 370 470 371.343 470 373V377C470 378.657 468.657 380 467 380H460V370ZM10 380H17C18.6569 380 20 381.343 20 383V390H10V380ZM50 380H60V390H53C51.3431 390 50 388.657 50 387V380ZM60 380H70V390H60V380ZM70 380H80V390H70V380ZM80 380H90V390H80V380ZM90 380H100V387C100 388.657 98.6569 390 97 390H90V380ZM120 383C120 381.343 121.343 380 123 380H130V390H123C121.343 390 120 388.657 120 387V383ZM150 380H160V390H153C151.343 390 150 388.657 150 387V380ZM180 380H187C188.657 380 190 381.343 190 383V390H180V380ZM240 380H250V390H240V380ZM260 383C260 381.343 261.343 380 263 380H267C268.657 380 270 381.343 270 383V390H260V383ZM300 380H310V387C310 388.657 308.657 390 307 390H300V380ZM330 380H340V390H330V380ZM350 380H360V387C360 388.657 358.657 390 357 390H353C351.343 390 350 388.657 350 387V380ZM380 380H390V390H380V380ZM390 380H400V390H390V380ZM410 383C410 381.343 411.343 380 413 380H420V390H410V383ZM420 380H430V387C430 388.657 428.657 390 427 390H420V380ZM450 380H460V390H450V380ZM480 383C480 381.343 481.343 380 483 380H487C488.657 380 490 381.343 490 383V390H480V383ZM10 390H20V400H10V390ZM20 390H30V400H20V390ZM30 390H37C38.6569 390 40 391.343 40 393V397C40 398.657 38.6569 400 37 400H30V390ZM70 390H80V397C80 398.657 78.6569 400 77 400H70V390ZM130 390H137C138.657 390 140 391.343 140 393V400H130V390ZM160 390H170V400H163C161.343 400 160 398.657 160 397V390ZM170 390H180V400H170V390ZM190 390H197C198.657 390 200 391.343 200 393V397C200 398.657 198.657 400 197 400H190V390ZM230 393C230 391.343 231.343 390 233 390H240V400H230V393ZM240 390H250V400H240V390ZM250 390H260V400H250V390ZM270 390H277C278.657 390 280 391.343 280 393V400H270V390ZM290 393C290 391.343 291.343 390 293 390H300V400H290V393ZM330 390H340V400H330V390ZM370 393C370 391.343 371.343 390 373 390H380V397C380 398.657 378.657 400 377 400H370V393ZM390 390H400V400H390V390ZM400 390H410V400H400V390ZM450 390H460V400H450V390ZM480 390H490V400H480V390ZM0 403C0 401.343 1.34315 400 3 400H10V410H3C1.34315 410 0 408.657 0 407V403ZM10 400H20V410H10V400ZM20 400H30V407C30 408.657 28.6569 410 27 410H20V400ZM60 403C60 401.343 61.3431 400 63 400H70V407C70 408.657 68.6569 410 67 410H63C61.3431 410 60 408.657 60 407V403ZM100 403C100 401.343 101.343 400 103 400H110V410H100V403ZM110 400H120V410H110V400ZM120 400H130V410H120V400ZM140 400H147C148.657 400 150 401.343 150 403V410H140V400ZM170 400H180V410H170V400ZM180 400H190V410H180V400ZM210 403C210 401.343 211.343 400 213 400H220V410H210V403ZM220 400H230V410H220V400ZM230 400H240V410H230V400ZM240 400H250V410H240V400ZM250 400H260V410H250V400ZM260 400H270V410H260V400ZM270 400H280V407C280 408.657 278.657 410 277 410H270V400ZM290 400H300V407C300 408.657 298.657 410 297 410H293C291.343 410 290 408.657 290 407V400ZM320 403C320 401.343 321.343 400 323 400H330V410H320V403ZM330 400H340V410H330V400ZM340 400H347C348.657 400 350 401.343 350 403V407C350 408.657 348.657 410 347 410H340V400ZM360 403C360 401.343 361.343 400 363 400H370V410H360V403ZM390 400H400V410H390V400ZM400 400H410V410H400V400ZM410 400H420V410H410V400ZM420 400H430V410H420V400ZM430 400H440V410H430V400ZM440 400H450V410H440V400ZM450 400H460V410H450V400ZM480 400H490V407C490 408.657 488.657 410 487 410H480V400ZM80 413C80 411.343 81.3431 410 83 410H90V420H83C81.3431 420 80 418.657 80 417V413ZM90 410H100V420H90V410ZM100 410H110V420H100V410ZM110 410H120V420H110V410ZM130 410H140V420H130V410ZM140 410H150V417C150 418.657 148.657 420 147 420H140V410ZM160 413C160 411.343 161.343 410 163 410H170V420H163C161.343 420 160 418.657 160 417V413ZM170 410H180V420H170V410ZM180 410H190V420H180V410ZM190 410H197C198.657 410 200 411.343 200 413V420H190V410ZM210 410H220V420H210V410ZM220 410H230V420H220V410ZM260 410H270V420H260V410ZM320 410H330V420H320V410ZM330 410H340V420H330V410ZM360 410H370V420H363C361.343 420 360 418.657 360 417V410ZM370 410H380V420H370V410ZM380 410H390V420H380V410ZM390 410H400V420H390V410ZM400 410H410V420H400V410ZM440 410H450V420H440V410ZM450 410H460V420H450V410ZM460 410H470V420H460V410ZM470 410H480V420H470V410ZM0 423C0 421.343 1.34315 420 3 420H10V430H0V423ZM10 420H20V430H10V420ZM20 420H30V430H20V420ZM30 420H40V430H30V420ZM40 420H50V430H40V420ZM50 420H60V430H50V420ZM60 420H67C68.6569 420 70 421.343 70 423V430H60V420ZM90 420H100V430H90V420ZM100 420H110V430H100V420ZM110 420H120V430H110V420ZM120 420H130V430H120V420ZM130 420H140V430H130V420ZM180 420H190V430H180V420ZM190 420H200V430H190V420ZM200 420H210V427C210 428.657 208.657 430 207 430H200V420ZM220 420H230V430H220V420ZM240 423C240 421.343 241.343 420 243 420H247C248.657 420 250 421.343 250 423V427C250 428.657 248.657 430 247 430H243C241.343 430 240 428.657 240 427V423ZM260 420H270V430H260V420ZM270 420H280V430H270V420ZM280 420H290V430H280V420ZM290 420H300V430H290V420ZM300 420H307C308.657 420 310 421.343 310 423V430H300V420ZM320 420H330V430H320V420ZM330 420H340V430H330V420ZM340 420H347C348.657 420 350 421.343 350 423V430H340V420ZM370 420H380V430H373C371.343 430 370 428.657 370 427V420ZM380 420H390V427C390 428.657 388.657 430 387 430H380V420ZM400 420H410V430H400V420ZM420 423C420 421.343 421.343 420 423 420H427C428.657 420 430 421.343 430 423V427C430 428.657 428.657 430 427 430H423C421.343 430 420 428.657 420 427V423ZM440 420H450V430H440V420ZM450 420H460V430H450V420ZM460 420H470V430H460V420ZM480 420H487C488.657 420 490 421.343 490 423V427C490 428.657 488.657 430 487 430H480V420ZM0 430H10V440H0V430ZM60 430H70V440H60V430ZM80 433C80 431.343 81.3431 430 83 430H90V440H80V433ZM100 430H110V440H100V430ZM110 430H120V440H110V430ZM130 430H140V440H130V430ZM140 430H150V440H140V430ZM150 430H160V440H150V430ZM160 430H170V440H160V430ZM170 430H180V440H170V430ZM220 430H230V440H220V430ZM260 430H270V440H260V430ZM270 430H280V440H270V430ZM280 430H290V440H280V430ZM290 430H300V440H290V430ZM300 430H310V440H300V430ZM310 430H320V437C320 438.657 318.657 440 317 440H310V430ZM330 430H340V440H330V430ZM340 430H350V440H340V430ZM350 430H357C358.657 430 360 431.343 360 433V440H350V430ZM400 430H410V440H400V430ZM440 430H450V440H440V430ZM450 430H460V437C460 438.657 458.657 440 457 440H450V430ZM470 430H480V440H473C471.343 440 470 438.657 470 437V430ZM0 440H10V450H0V440ZM20 443C20 441.343 21.3431 440 23 440H30V450H20V443ZM30 440H40V450H30V440ZM40 440H47C48.6569 440 50 441.343 50 443V450H40V440ZM60 440H70V450H60V440ZM80 440H90V450H80V440ZM100 440H110V450H100V440ZM120 440H130V447C130 448.657 128.657 450 127 450H123C121.343 450 120 448.657 120 447V440ZM170 440H180V447C180 448.657 178.657 450 177 450H173C171.343 450 170 448.657 170 447V440ZM190 443C190 441.343 191.343 440 193 440H200V450H193C191.343 450 190 448.657 190 447V443ZM200 440H207C208.657 440 210 441.343 210 443V450H200V440ZM220 440H230V450H220V440ZM230 440H240V450H230V440ZM240 440H250V450H240V440ZM250 440H260V450H250V440ZM260 440H270V450H260V440ZM270 440H280V450H270V440ZM280 440H290V450H280V440ZM290 440H300V450H290V440ZM300 440H310V450H300V440ZM330 440H340V450H330V440ZM360 440H367C368.657 440 370 441.343 370 443V450H360V440ZM380 443C380 441.343 381.343 440 383 440H390V450H380V443ZM390 440H400V450H390V440ZM400 440H410V450H400V440ZM410 440H420V450H410V440ZM420 440H430V450H420V440ZM430 440H440V450H430V440ZM440 440H450V450H440V440ZM480 440H487C488.657 440 490 441.343 490 443V450H480V440ZM0 450H10V460H0V450ZM20 450H30V460H20V450ZM30 450H40V460H30V450ZM40 450H50V460H40V450ZM60 450H70V460H60V450ZM80 450H90V457C90 458.657 88.6569 460 87 460H83C81.3431 460 80 458.657 80 457V450ZM100 450H110V460H100V450ZM150 453C150 451.343 151.343 450 153 450H157C158.657 450 160 451.343 160 453V460H150V453ZM200 450H210V460H203C201.343 460 200 458.657 200 457V450ZM220 450H230V460H220V450ZM230 450H240V460H230V450ZM240 450H250V460H240V450ZM270 450H280V460H273C271.343 460 270 458.657 270 457V450ZM280 450H290V460H280V450ZM290 450H300V460H290V450ZM300 450H310V460H300V450ZM310 450H320V460H310V450ZM320 450H330V460H320V450ZM330 450H340V460H330V450ZM340 450H347C348.657 450 350 451.343 350 453V460H340V450ZM360 450H370V460H360V450ZM370 450H380V460H370V450ZM380 450H390V460H380V450ZM390 450H400V460H390V450ZM400 450H410V457C410 458.657 408.657 460 407 460H400V450ZM420 450H430V460H420V450ZM450 450H460V460H450V450ZM460 450H470V460H460V450ZM470 450H480V460H470V450ZM480 450H490V460H480V450ZM0 460H10V470H0V460ZM20 460H30V470H23C21.3431 470 20 468.657 20 467V460ZM30 460H40V470H30V460ZM40 460H50V467C50 468.657 48.6569 470 47 470H40V460ZM60 460H70V470H60V460ZM100 460H110V467C110 468.657 108.657 470 107 470H100V460ZM120 463C120 461.343 121.343 460 123 460H127C128.657 460 130 461.343 130 463V470H123C121.343 470 120 468.657 120 467V463ZM140 463C140 461.343 141.343 460 143 460H150V470H140V463ZM150 460H160V470H150V460ZM170 463C170 461.343 171.343 460 173 460H177C178.657 460 180 461.343 180 463V470H170V463ZM210 460H220V470H213C211.343 470 210 468.657 210 467V460ZM220 460H230V467C230 468.657 228.657 470 227 470H220V460ZM240 460H250V470H240V460ZM250 460H257C258.657 460 260 461.343 260 463V470H250V460ZM280 460H290V470H280V460ZM320 460H330V470H320V460ZM330 460H340V470H330V460ZM340 460H350V470H340V460ZM350 460H360V470H350V460ZM360 460H370V470H360V460ZM370 460H380V467C380 468.657 378.657 470 377 470H370V460ZM390 460H400V470H390V460ZM420 460H430V470H420V460ZM430 460H440V470H430V460ZM440 460H450V470H440V460ZM460 460H470V470H460V460ZM480 460H490V470H480V460ZM0 470H10V480H0V470ZM60 470H70V480H60V470ZM80 473C80 471.343 81.3431 470 83 470H90V480H83C81.3431 480 80 478.657 80 477V473ZM90 470H100V480H90V470ZM130 470H140V480H133C131.343 480 130 478.657 130 477V470ZM160 470H170V480H160V470ZM180 470H187C188.657 470 190 471.343 190 473V477C190 478.657 188.657 480 187 480H180V470ZM240 470H250V480H240V470ZM260 470H270V480H260V470ZM270 470H280V480H270V470ZM290 470H300V480H290V470ZM300 470H307C308.657 470 310 471.343 310 473V480H300V470ZM320 470H330V480H320V470ZM330 470H340V480H330V470ZM340 470H350V480H340V470ZM350 470H360V480H350V470ZM390 470H400V480H390V470ZM400 470H407C408.657 470 410 471.343 410 473V480H400V470ZM420 470H430V477C430 478.657 428.657 480 427 480H420V470ZM450 470H460V480H450V470ZM460 470H470V480H460V470ZM470 470H480V480H470V470ZM480 470H490V480H480V470ZM0 480H10V490H3C1.34315 490 0 488.657 0 487V480ZM10 480H20V490H10V480ZM20 480H30V490H20V480ZM30 480H40V490H30V480ZM40 480H50V490H40V480ZM50 480H60V490H50V480ZM60 480H70V487C70 488.657 68.6569 490 67 490H60V480ZM90 480H100V487C100 488.657 98.6569 490 97 490H93C91.3431 490 90 488.657 90 487V480ZM140 480H150V490H143C141.343 490 140 488.657 140 487V480ZM150 480H160V490H150V480ZM160 480H170V490H160V480ZM170 480H180V487C180 488.657 178.657 490 177 490H170V480ZM200 483C200 481.343 201.343 480 203 480H207C208.657 480 210 481.343 210 483V487C210 488.657 208.657 490 207 490H203C201.343 490 200 488.657 200 487V483ZM220 483C220 481.343 221.343 480 223 480H227C228.657 480 230 481.343 230 483V487C230 488.657 228.657 490 227 490H223C221.343 490 220 488.657 220 487V483ZM240 480H250V490H243C241.343 490 240 488.657 240 487V480ZM250 480H260V490H250V480ZM260 480H270V487C270 488.657 268.657 490 267 490H260V480ZM280 480H290V490H283C281.343 490 280 488.657 280 487V480ZM290 480H300V487C300 488.657 298.657 490 297 490H290V480ZM310 480H320V490H313C311.343 490 310 488.657 310 487V480ZM320 480H330V490H320V480ZM330 480H340V490H330V480ZM340 480H350V487C350 488.657 348.657 490 347 490H340V480ZM360 480H367C368.657 480 370 481.343 370 483V487C370 488.657 368.657 490 367 490H363C361.343 490 360 488.657 360 487V480ZM390 480H400V490H393C391.343 490 390 488.657 390 487V480ZM400 480H410V490H400V480ZM410 480H420V487C420 488.657 418.657 490 417 490H410V480ZM440 483C440 481.343 441.343 480 443 480H450V490H443C441.343 490 440 488.657 440 487V483ZM450 480H460V487C460 488.657 458.657 490 457 490H450V480ZM480 480H490V487C490 488.657 488.657 490 487 490H483C481.343 490 480 488.657 480 487V480Z" fill="white"/>
</svg>
